<svg id="svg" version="1.1" xmlns="http://www.w3.org/2000/svg" xmlns:xlink="http://www.w3.org/1999/xlink" width="400" height="53" viewBox="0, 0, 400,53"><g id="svgg"><path id="path0" d="M103.611 1.611 C 102.992 2.230,103.653 9.167,104.331 9.167 C 104.434 9.167,104.500 9.817,104.500 10.833 L 104.500 12.500 99.700 12.500 C 94.141 12.500,94.500 12.383,94.500 14.200 C 94.500 15.341,94.463 15.500,94.200 15.500 C 93.647 15.500,93.500 15.858,93.500 17.200 C 93.500 18.341,93.463 18.500,93.200 18.500 C 92.647 18.500,92.500 18.858,92.500 20.200 C 92.500 21.341,92.463 21.500,92.200 21.500 C 91.700 21.500,91.500 21.858,91.500 22.754 C 91.500 23.607,91.499 23.609,91.006 23.536 L 90.512 23.464 90.465 22.024 C 90.417 20.595,90.413 20.583,89.965 20.531 C 89.516 20.479,89.512 20.468,89.465 19.031 C 89.417 17.594,89.413 17.583,88.965 17.531 C 88.516 17.479,88.512 17.468,88.465 16.031 C 88.417 14.596,88.413 14.583,87.966 14.531 C 87.543 14.482,87.513 14.423,87.466 13.531 L 87.417 12.583 80.614 12.540 C 73.413 12.494,72.783 12.541,72.697 13.135 C 72.628 13.608,72.372 13.606,72.303 13.132 C 72.223 12.576,71.839 12.535,66.645 12.517 C 62.690 12.503,61.840 12.541,61.676 12.739 C 60.962 13.599,61.613 34.833,62.352 34.833 C 62.434 34.833,62.500 36.109,62.500 37.669 L 62.500 40.505 67.458 40.461 L 72.417 40.417 72.460 32.458 L 72.503 24.500 73.002 24.500 C 73.344 24.500,73.500 24.418,73.500 24.238 C 73.500 23.593,73.882 23.500,76.538 23.500 C 78.161 23.500,79.166 23.434,79.281 23.319 C 79.412 23.188,79.494 23.188,79.574 23.319 C 79.636 23.418,79.869 23.500,80.093 23.500 C 80.481 23.500,80.500 23.549,80.502 24.542 C 80.505 25.922,80.620 26.286,81.091 26.404 C 81.438 26.491,81.489 26.613,81.533 27.459 C 81.581 28.365,81.608 28.419,82.042 28.469 C 82.495 28.522,82.500 28.534,82.500 29.749 C 82.500 31.003,82.716 31.500,83.262 31.500 C 83.442 31.500,83.500 31.744,83.500 32.500 C 83.500 33.298,83.553 33.500,83.762 33.500 C 84.286 33.500,84.500 33.946,84.500 35.038 C 84.500 36.137,84.674 36.500,85.200 36.500 C 85.467 36.500,85.500 36.667,85.500 38.000 C 85.500 39.333,85.467 39.500,85.200 39.500 C 84.649 39.500,84.500 39.858,84.500 41.189 C 84.500 42.471,84.498 42.478,84.042 42.531 C 83.608 42.581,83.581 42.634,83.533 43.542 C 83.498 44.221,83.416 44.500,83.254 44.500 C 82.716 44.500,82.500 45.003,82.500 46.251 C 82.500 47.466,82.495 47.478,82.042 47.531 C 81.609 47.580,81.581 47.636,81.534 48.526 C 81.490 49.366,81.441 49.479,81.078 49.570 C 80.585 49.693,80.465 50.104,80.532 51.424 L 80.583 52.417 86.042 52.461 L 91.500 52.505 91.500 51.513 C 91.500 50.556,91.516 50.520,91.958 50.469 C 92.393 50.419,92.419 50.366,92.467 49.451 C 92.510 48.619,92.570 48.465,92.902 48.339 C 93.361 48.164,93.495 47.743,93.498 46.458 C 93.500 45.647,93.546 45.500,93.800 45.500 C 94.351 45.500,94.500 45.142,94.500 43.811 C 94.500 42.529,94.502 42.522,94.958 42.469 C 95.393 42.419,95.419 42.367,95.467 41.440 C 95.509 40.624,95.573 40.450,95.855 40.376 C 96.305 40.258,96.500 39.687,96.500 38.489 C 96.500 37.648,96.545 37.500,96.800 37.500 C 97.326 37.500,97.500 37.137,97.500 36.038 C 97.500 34.946,97.714 34.500,98.238 34.500 C 98.447 34.500,98.500 34.298,98.500 33.500 C 98.500 32.744,98.558 32.500,98.738 32.500 C 99.284 32.500,99.500 32.003,99.500 30.749 C 99.500 29.534,99.505 29.522,99.958 29.469 C 100.407 29.418,100.418 29.390,100.466 28.189 C 100.516 26.942,100.718 26.500,101.238 26.500 C 101.447 26.500,101.500 26.298,101.500 25.503 C 101.500 24.589,101.533 24.498,101.901 24.406 C 102.379 24.286,102.495 23.926,102.498 22.553 C 102.500 21.553,102.514 21.521,102.958 21.469 C 103.407 21.418,103.418 21.390,103.466 20.189 C 103.516 18.942,103.718 18.500,104.238 18.500 C 104.447 18.500,104.500 18.298,104.500 17.500 C 104.500 16.648,104.544 16.500,104.800 16.500 C 105.293 16.500,105.500 16.146,105.500 15.303 L 105.500 14.507 108.958 14.462 L 112.417 14.417 112.460 7.958 L 112.504 1.500 108.113 1.500 C 105.698 1.500,103.672 1.550,103.611 1.611 M338.700 1.700 C 338.590 1.810,338.500 2.030,338.500 2.189 C 338.500 2.380,338.345 2.496,338.042 2.531 C 337.685 2.572,337.572 2.682,337.532 3.032 C 337.492 3.378,337.378 3.492,337.032 3.532 C 336.585 3.583,336.583 3.590,336.536 5.114 C 336.491 6.550,336.465 6.648,336.119 6.698 C 335.560 6.777,335.565 8.224,336.125 8.303 C 336.478 8.353,336.500 8.435,336.500 9.666 C 336.500 11.006,336.705 11.500,337.262 11.500 C 337.393 11.500,337.500 11.646,337.500 11.823 C 337.500 12.001,337.594 12.208,337.708 12.282 C 337.823 12.356,335.367 12.454,332.250 12.500 L 326.583 12.583 326.534 13.614 C 326.490 14.526,326.443 14.652,326.124 14.698 C 325.657 14.765,325.537 15.227,325.517 17.042 C 325.502 18.329,325.465 18.500,325.200 18.500 C 324.610 18.500,324.500 18.844,324.500 20.689 L 324.500 22.478 324.042 22.531 C 323.604 22.581,323.581 22.629,323.534 23.595 L 323.486 24.607 322.993 24.534 L 322.500 24.462 322.498 22.939 C 322.495 21.064,322.409 20.722,321.907 20.596 C 321.535 20.502,321.510 20.415,321.465 19.040 C 321.417 17.588,321.415 17.583,320.958 17.531 L 320.500 17.478 320.500 15.751 C 320.500 13.977,320.339 13.500,319.738 13.500 C 319.585 13.500,319.500 13.322,319.500 13.000 L 319.500 12.500 312.500 12.500 L 305.500 12.500 305.500 13.000 C 305.500 13.722,304.552 13.760,304.469 13.042 L 304.417 12.583 299.458 12.539 L 294.500 12.495 294.500 26.500 L 294.500 40.505 299.458 40.461 L 304.417 40.417 304.460 32.961 L 304.503 25.505 304.904 25.405 C 305.141 25.345,305.345 25.141,305.405 24.905 C 305.464 24.669,305.669 24.464,305.905 24.405 C 306.142 24.345,306.345 24.141,306.405 23.902 C 306.506 23.500,306.507 23.500,308.925 23.500 C 310.903 23.500,311.361 23.455,311.438 23.254 C 311.521 23.038,311.562 23.038,311.778 23.254 C 311.913 23.389,312.131 23.500,312.262 23.500 C 312.447 23.500,312.500 23.776,312.500 24.738 C 312.500 26.003,312.715 26.500,313.262 26.500 C 313.447 26.500,313.500 26.776,313.500 27.738 C 313.500 29.003,313.715 29.500,314.262 29.500 C 314.447 29.500,314.500 29.776,314.500 30.738 C 314.500 32.003,314.715 32.500,315.262 32.500 C 315.448 32.500,315.500 32.784,315.500 33.800 C 315.500 35.142,315.647 35.500,316.200 35.500 C 316.462 35.500,316.500 35.657,316.500 36.738 C 316.500 37.997,316.715 38.500,317.254 38.500 C 317.416 38.500,317.498 38.779,317.533 39.458 L 317.583 40.417 323.314 40.461 C 329.966 40.511,329.500 40.636,329.500 38.813 C 329.500 37.786,329.552 37.500,329.738 37.500 C 330.285 37.500,330.500 37.003,330.500 35.741 C 330.500 34.576,330.523 34.501,330.901 34.406 C 331.379 34.286,331.495 33.926,331.498 32.554 C 331.500 31.635,331.553 31.472,332.000 31.026 C 332.482 30.544,332.500 30.470,332.500 29.024 L 332.500 27.522 332.958 27.469 C 333.415 27.417,333.417 27.411,333.465 25.969 C 333.512 24.532,333.516 24.521,333.965 24.469 C 334.414 24.417,334.417 24.407,334.465 22.958 C 334.507 21.695,334.552 21.500,334.806 21.500 C 335.352 21.500,335.500 21.138,335.500 19.800 C 335.500 18.784,335.552 18.500,335.738 18.500 C 335.869 18.500,336.094 18.382,336.238 18.238 C 336.476 18.000,336.500 18.982,336.500 29.038 C 336.500 37.420,336.548 40.148,336.700 40.300 C 337.038 40.638,346.896 40.580,347.238 40.238 C 347.463 40.014,347.500 39.364,347.500 35.684 L 347.500 31.391 347.994 31.464 L 348.488 31.536 348.535 32.976 C 348.583 34.410,348.585 34.417,349.042 34.469 C 349.398 34.510,349.500 34.610,349.500 34.917 C 349.500 35.548,349.811 36.192,350.159 36.283 C 350.375 36.340,350.498 36.540,350.532 36.892 C 350.574 37.325,350.663 37.426,351.042 37.469 C 351.294 37.498,351.500 37.624,351.500 37.749 C 351.500 38.194,352.014 38.500,352.762 38.500 C 353.471 38.500,353.500 38.520,353.500 39.000 C 353.500 39.458,353.548 39.500,354.072 39.500 C 354.533 39.500,354.654 39.571,354.697 39.865 C 354.781 40.442,355.439 40.509,360.617 40.461 L 365.417 40.417 365.469 39.966 C 365.518 39.543,365.577 39.513,366.469 39.466 C 367.348 39.420,367.420 39.386,367.467 38.987 C 367.510 38.611,367.624 38.539,368.383 38.404 L 369.250 38.250 369.405 37.375 C 369.550 36.563,369.595 36.500,370.030 36.500 C 370.439 36.500,370.500 36.436,370.500 36.011 C 370.500 35.602,370.574 35.514,370.958 35.469 C 371.397 35.419,371.419 35.372,371.466 34.386 C 371.510 33.474,371.557 33.348,371.876 33.302 C 372.097 33.270,372.278 33.089,372.344 32.833 C 372.449 32.424,372.452 32.426,372.517 32.917 C 372.570 33.316,372.674 33.427,373.034 33.469 C 373.457 33.518,373.487 33.577,373.534 34.469 C 373.581 35.365,373.608 35.420,374.042 35.469 C 374.426 35.514,374.500 35.602,374.500 36.011 C 374.500 36.443,374.558 36.500,375.000 36.500 C 375.444 36.500,375.500 36.556,375.500 37.000 C 375.500 37.444,375.556 37.500,376.000 37.500 C 376.444 37.500,376.500 37.556,376.500 38.000 C 376.500 38.444,376.556 38.500,377.000 38.500 C 377.370 38.500,377.500 38.578,377.500 38.800 C 377.500 39.292,377.854 39.500,378.689 39.500 C 379.426 39.500,379.481 39.530,379.531 39.958 L 379.583 40.417 384.417 40.465 C 389.961 40.520,390.257 40.493,390.403 39.912 C 390.484 39.589,390.614 39.500,391.003 39.500 C 391.442 39.500,391.500 39.443,391.500 39.008 C 391.500 38.527,391.520 38.516,392.458 38.467 C 393.366 38.419,393.419 38.392,393.469 37.958 C 393.504 37.655,393.620 37.500,393.811 37.500 C 394.180 37.500,394.500 37.181,394.500 36.813 C 394.500 36.655,394.725 36.301,395.000 36.026 C 395.334 35.692,395.500 35.359,395.500 35.024 C 395.500 34.600,395.572 34.514,395.958 34.469 C 396.397 34.419,396.419 34.372,396.466 33.392 C 396.507 32.542,396.570 32.354,396.839 32.284 C 397.414 32.133,397.485 31.465,397.495 26.153 C 397.505 20.780,397.472 20.500,396.821 20.500 C 396.567 20.500,396.508 20.341,396.467 19.542 C 396.420 18.639,396.391 18.580,395.966 18.531 C 395.543 18.482,395.513 18.423,395.466 17.531 C 395.420 16.641,395.389 16.580,394.968 16.532 C 394.622 16.492,394.508 16.378,394.468 16.032 C 394.428 15.685,394.315 15.572,393.968 15.532 C 393.622 15.492,393.508 15.378,393.468 15.032 C 393.428 14.682,393.315 14.572,392.958 14.531 C 392.706 14.502,392.500 14.376,392.500 14.251 C 392.500 13.805,391.986 13.500,391.234 13.500 C 390.600 13.500,390.469 13.441,390.337 13.092 C 390.117 12.514,389.747 12.480,384.333 12.535 L 379.583 12.583 379.531 13.042 C 379.480 13.481,379.438 13.500,378.549 13.500 C 377.730 13.500,377.561 13.561,377.135 14.007 C 376.868 14.286,376.459 14.587,376.225 14.676 C 375.992 14.765,375.761 14.992,375.711 15.181 C 375.662 15.371,375.443 15.593,375.224 15.676 C 374.804 15.836,374.500 16.427,374.500 17.083 C 374.500 17.390,374.398 17.490,374.042 17.531 C 373.608 17.581,373.581 17.634,373.533 18.542 C 373.487 19.438,373.456 19.500,373.070 19.500 C 372.796 19.500,372.605 19.627,372.505 19.875 C 372.402 20.133,372.351 20.165,372.344 19.976 C 372.338 19.826,372.150 19.657,371.925 19.600 C 371.559 19.508,371.511 19.398,371.467 18.541 C 371.419 17.635,371.392 17.581,370.958 17.531 C 370.574 17.486,370.500 17.398,370.500 16.989 C 370.500 16.564,370.439 16.500,370.030 16.500 C 369.595 16.500,369.550 16.437,369.405 15.625 L 369.250 14.750 368.375 14.595 C 367.563 14.450,367.500 14.405,367.500 13.970 C 367.500 13.547,367.443 13.500,366.936 13.500 C 366.514 13.500,366.350 13.417,366.286 13.169 C 366.129 12.571,365.477 12.500,360.106 12.500 C 354.699 12.500,354.500 12.525,354.500 13.200 C 354.500 13.447,354.359 13.500,353.700 13.500 C 352.860 13.500,352.500 13.707,352.500 14.189 C 352.500 14.380,352.345 14.496,352.042 14.531 C 351.685 14.572,351.572 14.682,351.532 15.032 C 351.492 15.378,351.378 15.492,351.032 15.532 C 350.682 15.572,350.572 15.685,350.531 16.042 C 350.496 16.345,350.380 16.500,350.189 16.500 C 349.708 16.500,349.500 16.859,349.500 17.689 C 349.500 18.426,349.470 18.481,349.042 18.531 C 348.608 18.581,348.581 18.635,348.533 19.541 C 348.489 20.387,348.438 20.509,348.091 20.596 C 347.534 20.736,347.508 20.951,347.479 25.500 C 347.461 28.195,347.413 29.191,347.336 28.431 C 347.246 27.541,347.137 27.212,346.859 26.988 C 346.501 26.698,346.500 26.667,346.500 19.598 L 346.500 12.500 345.946 12.500 C 345.424 12.500,345.395 12.470,345.464 12.000 C 345.527 11.577,345.612 11.500,346.019 11.500 C 346.454 11.500,346.500 11.447,346.500 10.936 C 346.500 10.514,346.583 10.350,346.831 10.286 C 347.378 10.143,347.512 9.432,347.463 6.936 L 347.417 4.583 346.958 4.531 C 346.530 4.481,346.500 4.426,346.500 3.689 C 346.500 2.754,346.295 2.500,345.538 2.500 C 344.938 2.500,344.500 2.189,344.500 1.762 C 344.500 1.422,339.036 1.364,338.700 1.700 M109.851 4.176 C 110.169 4.346,110.177 4.483,110.080 7.801 C 109.942 12.537,109.955 12.500,108.392 12.500 C 107.001 12.500,106.580 12.008,106.420 10.200 C 106.091 6.490,106.055 4.590,106.306 4.292 C 106.592 3.952,109.269 3.865,109.851 4.176 M344.135 4.739 L 344.917 5.478 344.917 7.030 C 344.917 8.826,344.566 9.479,343.187 10.256 C 340.436 11.805,337.222 8.666,338.664 5.838 C 339.427 4.342,340.009 4.012,341.885 4.005 L 343.353 4.000 344.135 4.739 M13.974 5.612 C 13.822 5.652,13.653 5.865,13.598 6.084 C 13.509 6.439,13.392 6.489,12.541 6.533 C 11.639 6.580,11.580 6.609,11.531 7.034 C 11.482 7.457,11.423 7.487,10.531 7.534 C 9.635 7.581,9.580 7.608,9.531 8.042 C 9.486 8.426,9.398 8.500,8.989 8.500 C 8.557 8.500,8.500 8.558,8.500 9.000 C 8.500 9.444,8.444 9.500,8.000 9.500 C 7.556 9.500,7.500 9.556,7.500 10.000 C 7.500 10.444,7.444 10.500,7.000 10.500 C 6.556 10.500,6.500 10.556,6.500 11.000 C 6.500 11.444,6.444 11.500,6.000 11.500 C 5.558 11.500,5.500 11.557,5.500 11.989 C 5.500 12.398,5.426 12.486,5.042 12.531 C 4.608 12.581,4.581 12.634,4.533 13.542 C 4.493 14.324,4.430 14.500,4.192 14.500 C 3.648 14.500,3.500 14.863,3.500 16.200 C 3.500 17.216,3.448 17.500,3.262 17.500 C 2.536 17.500,2.500 17.764,2.500 23.062 C 2.500 28.285,2.527 28.500,3.194 28.500 C 3.448 28.500,3.493 28.695,3.535 29.958 C 3.583 31.405,3.587 31.417,4.034 31.469 C 4.457 31.518,4.487 31.577,4.534 32.469 C 4.581 33.365,4.608 33.420,5.042 33.469 C 5.426 33.514,5.500 33.602,5.500 34.011 C 5.500 34.443,5.558 34.500,6.000 34.500 C 6.486 34.500,6.500 34.522,6.500 35.300 C 6.500 36.146,6.707 36.500,7.200 36.500 C 7.365 36.500,7.500 36.607,7.500 36.738 C 7.500 37.193,8.008 37.500,8.762 37.500 C 9.471 37.500,9.500 37.520,9.500 38.000 C 9.500 38.444,9.556 38.500,10.000 38.500 C 10.370 38.500,10.500 38.578,10.500 38.800 C 10.500 39.293,10.854 39.500,11.700 39.500 C 12.282 39.500,12.500 39.565,12.500 39.738 C 12.500 40.471,12.727 40.500,18.562 40.500 C 24.305 40.500,24.500 40.477,24.500 39.808 C 24.500 39.570,24.676 39.507,25.458 39.467 C 26.366 39.419,26.419 39.392,26.469 38.958 C 26.514 38.574,26.602 38.500,27.011 38.500 C 27.441 38.500,27.500 38.441,27.500 38.008 C 27.500 37.527,27.520 37.516,28.458 37.467 C 29.366 37.419,29.419 37.392,29.469 36.958 C 29.504 36.655,29.620 36.500,29.811 36.500 C 30.293 36.500,30.500 36.140,30.500 35.300 C 30.500 34.522,30.514 34.500,31.000 34.500 C 31.444 34.500,31.500 34.444,31.500 34.000 C 31.500 33.556,31.556 33.500,32.000 33.500 C 32.499 33.500,32.500 33.498,32.500 32.519 C 32.500 31.556,32.509 31.536,33.000 31.464 C 33.456 31.398,33.500 31.433,33.500 31.867 C 33.500 32.168,33.608 32.385,33.792 32.454 C 34.332 32.659,34.500 32.972,34.502 33.780 C 34.505 34.915,34.641 35.291,35.088 35.403 C 35.358 35.471,35.494 35.641,35.531 35.959 C 35.572 36.318,35.682 36.428,36.042 36.469 C 36.426 36.514,36.500 36.602,36.500 37.011 C 36.500 37.443,36.558 37.500,37.000 37.500 C 37.444 37.500,37.500 37.556,37.500 38.000 C 37.500 38.343,37.582 38.500,37.762 38.500 C 38.099 38.500,38.500 38.901,38.500 39.238 C 38.500 39.425,38.663 39.500,39.072 39.500 C 39.534 39.500,39.654 39.570,39.697 39.868 C 39.776 40.419,40.169 40.465,44.982 40.483 L 49.381 40.500 49.858 40.000 C 50.452 39.379,50.500 39.379,50.500 40.002 L 50.500 40.505 55.458 40.461 L 60.417 40.417 60.459 26.685 C 60.490 16.678,60.451 12.892,60.314 12.727 C 60.024 12.377,50.128 12.395,49.778 12.746 C 49.562 12.962,49.521 12.962,49.438 12.746 C 49.358 12.537,48.636 12.500,44.684 12.500 C 39.791 12.500,39.500 12.543,39.500 13.262 C 39.500 13.410,39.327 13.501,39.042 13.502 C 38.251 13.506,37.813 13.698,37.657 14.109 C 37.574 14.327,37.321 14.576,37.095 14.662 C 36.798 14.775,36.652 14.991,36.567 15.447 C 36.437 16.140,36.162 16.500,35.762 16.500 C 35.583 16.500,35.500 16.656,35.500 16.989 C 35.500 17.398,35.426 17.486,35.042 17.531 C 34.607 17.581,34.581 17.634,34.533 18.549 C 34.490 19.388,34.431 19.534,34.089 19.665 C 33.872 19.747,33.660 19.950,33.617 20.116 C 33.523 20.479,33.497 20.076,33.451 17.500 L 33.417 15.583 32.965 15.531 C 32.516 15.479,32.512 15.468,32.465 14.031 C 32.417 12.589,32.415 12.583,31.958 12.531 C 31.574 12.486,31.500 12.398,31.500 11.989 C 31.500 11.557,31.442 11.500,31.000 11.500 C 30.556 11.500,30.500 11.444,30.500 11.000 C 30.500 10.556,30.444 10.500,30.000 10.500 C 29.556 10.500,29.500 10.444,29.500 10.000 C 29.500 9.556,29.444 9.500,29.000 9.500 C 28.556 9.500,28.500 9.444,28.500 9.000 C 28.500 8.556,28.444 8.500,28.000 8.500 C 27.556 8.500,27.500 8.444,27.500 8.000 L 27.500 7.500 26.500 7.500 L 25.500 7.500 25.500 7.000 L 25.500 6.500 24.003 6.500 C 22.561 6.500,22.503 6.485,22.406 6.099 C 22.350 5.879,22.143 5.655,21.944 5.601 C 21.533 5.491,14.394 5.500,13.974 5.612 M252.381 5.664 C 252.178 5.749,251.917 5.971,251.799 6.159 C 251.626 6.437,251.403 6.503,250.585 6.517 C 249.216 6.539,248.761 6.688,248.697 7.132 C 248.655 7.419,248.527 7.504,248.113 7.517 C 247.198 7.545,246.768 7.739,246.667 8.167 C 246.607 8.418,246.416 8.607,246.161 8.666 C 245.818 8.745,245.725 8.903,245.596 9.622 C 245.461 10.376,245.388 10.490,245.013 10.533 C 244.614 10.580,244.580 10.651,244.533 11.542 C 244.498 12.221,244.416 12.500,244.254 12.500 C 243.572 12.500,243.500 12.882,243.500 16.500 C 243.500 20.118,243.572 20.500,244.254 20.500 C 244.416 20.500,244.498 20.779,244.533 21.458 C 244.581 22.366,244.608 22.419,245.042 22.469 C 245.426 22.514,245.500 22.602,245.500 23.011 C 245.500 23.443,245.558 23.500,246.000 23.500 C 246.444 23.500,246.500 23.556,246.500 24.000 C 246.500 24.444,246.556 24.500,247.000 24.500 C 247.370 24.500,247.500 24.578,247.500 24.800 C 247.500 25.292,247.854 25.500,248.689 25.500 C 249.426 25.500,249.481 25.530,249.531 25.958 C 249.581 26.397,249.628 26.419,250.614 26.466 C 251.526 26.510,251.652 26.557,251.698 26.876 C 251.760 27.308,252.223 27.461,253.542 27.483 C 254.347 27.497,254.500 27.548,254.500 27.800 C 254.500 28.292,254.854 28.500,255.689 28.500 C 256.426 28.500,256.481 28.530,256.531 28.958 C 256.572 29.318,256.682 29.428,257.042 29.469 C 257.642 29.539,257.735 30.566,257.154 30.718 C 256.964 30.768,256.768 30.964,256.718 31.154 C 256.596 31.623,255.500 31.664,255.500 31.200 C 255.500 30.816,255.184 30.500,254.800 30.500 C 254.544 30.500,254.500 30.352,254.500 29.500 L 254.500 28.500 249.000 28.500 L 243.500 28.500 243.500 30.422 C 243.500 32.099,243.537 32.358,243.792 32.454 C 244.366 32.672,244.500 32.971,244.500 34.038 C 244.500 35.137,244.674 35.500,245.200 35.500 C 245.422 35.500,245.500 35.630,245.500 36.000 C 245.500 36.444,245.556 36.500,246.000 36.500 C 246.444 36.500,246.500 36.556,246.500 37.000 C 246.500 37.444,246.556 37.500,247.000 37.500 C 247.444 37.500,247.500 37.556,247.500 38.000 C 247.500 38.444,247.556 38.500,247.997 38.500 C 248.383 38.500,248.516 38.590,248.594 38.901 C 248.701 39.328,249.082 39.494,249.958 39.498 C 250.368 39.499,250.500 39.573,250.500 39.800 C 250.500 40.478,250.683 40.500,256.438 40.500 C 262.273 40.500,262.500 40.471,262.500 39.738 C 262.500 39.597,262.665 39.500,262.906 39.500 C 263.553 39.500,264.192 39.191,264.286 38.831 C 264.339 38.628,264.513 38.500,264.736 38.500 C 265.184 38.500,265.500 38.204,265.500 37.784 C 265.500 37.605,265.649 37.430,265.846 37.378 C 266.234 37.277,266.500 36.717,266.500 36.000 C 266.500 35.603,266.577 35.513,266.958 35.469 C 267.415 35.417,267.417 35.412,267.465 33.952 C 267.510 32.584,267.539 32.477,267.909 32.336 C 268.127 32.253,268.340 32.050,268.383 31.884 C 268.426 31.719,268.470 31.897,268.481 32.280 C 268.500 32.988,268.828 33.500,269.262 33.500 C 269.432 33.500,269.500 33.710,269.500 34.238 C 269.500 34.986,269.806 35.500,270.251 35.500 C 270.376 35.500,270.502 35.706,270.531 35.958 C 270.572 36.318,270.682 36.428,271.042 36.469 C 271.426 36.514,271.500 36.602,271.500 37.011 C 271.500 37.441,271.559 37.500,271.989 37.500 C 272.398 37.500,272.486 37.574,272.531 37.958 C 272.572 38.318,272.682 38.428,273.042 38.469 C 273.294 38.498,273.500 38.624,273.500 38.749 C 273.500 39.194,274.014 39.500,274.762 39.500 C 275.362 39.500,275.500 39.556,275.500 39.800 C 275.500 40.474,275.704 40.500,281.000 40.500 C 286.296 40.500,286.500 40.474,286.500 39.800 C 286.500 39.576,286.630 39.500,287.013 39.500 C 287.358 39.500,287.686 39.340,288.015 39.011 C 288.284 38.742,288.709 38.498,288.960 38.469 C 289.315 38.428,289.428 38.317,289.468 37.968 C 289.508 37.622,289.622 37.508,289.968 37.468 C 290.318 37.428,290.428 37.315,290.469 36.958 C 290.498 36.706,290.624 36.500,290.749 36.500 C 291.134 36.500,291.500 36.001,291.500 35.476 C 291.500 34.931,291.826 34.500,292.238 34.500 C 292.447 34.500,292.500 34.298,292.500 33.500 C 292.500 32.648,292.544 32.500,292.800 32.500 C 293.480 32.500,293.500 32.326,293.500 26.360 L 293.500 20.619 293.000 20.142 C 292.667 19.824,292.500 19.501,292.500 19.176 C 292.500 18.460,292.208 17.813,291.841 17.717 C 291.625 17.660,291.502 17.460,291.468 17.108 C 291.426 16.675,291.337 16.574,290.958 16.531 C 290.574 16.486,290.500 16.398,290.500 15.989 C 290.500 15.559,290.441 15.500,290.011 15.500 C 289.602 15.500,289.514 15.426,289.469 15.042 C 289.428 14.682,289.318 14.572,288.958 14.531 C 288.655 14.496,288.500 14.380,288.500 14.189 C 288.500 13.709,288.141 13.500,287.318 13.500 C 286.624 13.500,286.524 13.453,286.432 13.086 C 286.285 12.498,286.146 12.485,280.583 12.537 L 275.583 12.583 275.531 13.042 C 275.480 13.484,275.444 13.500,274.489 13.500 C 273.501 13.500,273.500 13.501,273.500 14.000 C 273.500 14.444,273.444 14.500,273.000 14.500 C 272.657 14.500,272.500 14.582,272.500 14.762 C 272.500 15.099,272.099 15.500,271.762 15.500 C 271.582 15.500,271.500 15.657,271.500 16.000 C 271.500 16.444,271.444 16.500,271.000 16.500 C 270.558 16.500,270.500 16.557,270.500 16.989 C 270.500 17.398,270.426 17.486,270.042 17.531 C 269.608 17.580,269.581 17.635,269.534 18.531 C 269.487 19.423,269.457 19.482,269.034 19.531 L 268.583 19.583 268.536 21.540 C 268.491 23.444,268.479 23.499,268.093 23.596 C 267.858 23.655,267.654 23.860,267.595 24.098 C 267.388 24.923,266.500 24.651,266.500 23.762 C 266.500 23.008,266.193 22.500,265.738 22.500 C 265.607 22.500,265.500 22.365,265.500 22.200 C 265.500 21.707,265.146 21.500,264.300 21.500 C 263.522 21.500,263.500 21.486,263.500 21.000 C 263.500 20.517,263.474 20.500,262.738 20.500 C 261.952 20.500,261.500 20.231,261.500 19.762 C 261.500 19.553,261.298 19.500,260.500 19.500 C 259.621 19.500,259.500 19.461,259.500 19.177 C 259.500 18.999,259.406 18.792,259.292 18.718 C 259.177 18.644,260.958 18.546,263.250 18.500 L 267.417 18.417 267.462 15.622 C 267.514 12.464,267.409 11.776,266.865 11.697 C 266.569 11.654,266.500 11.533,266.500 11.059 C 266.500 10.632,266.365 10.340,266.000 9.974 C 265.725 9.699,265.500 9.345,265.500 9.187 C 265.500 8.815,265.179 8.500,264.800 8.500 C 264.635 8.500,264.500 8.393,264.500 8.262 C 264.500 7.807,263.992 7.500,263.241 7.500 C 262.604 7.500,262.493 7.447,262.406 7.099 C 262.285 6.620,261.927 6.505,260.534 6.502 C 259.597 6.500,259.442 6.451,259.090 6.042 L 258.696 5.583 255.723 5.547 C 254.088 5.527,252.584 5.580,252.381 5.664 M143.500 11.000 L 143.500 15.500 146.997 15.500 L 150.494 15.500 150.539 27.819 C 150.563 34.595,150.646 40.201,150.722 40.278 C 150.963 40.519,160.993 40.547,161.281 40.307 C 161.498 40.128,161.523 38.881,161.473 30.703 L 161.417 21.304 160.958 20.910 L 160.500 20.516 160.500 18.014 L 160.500 15.512 164.500 15.464 L 168.500 15.417 168.500 27.771 C 168.500 38.170,168.537 40.157,168.734 40.320 C 169.010 40.549,179.049 40.508,179.278 40.276 C 179.354 40.199,179.411 38.144,179.403 35.709 L 179.390 31.282 178.945 30.899 C 178.365 30.400,178.241 27.500,178.800 27.500 C 179.351 27.500,179.500 27.142,179.500 25.811 C 179.500 24.529,179.502 24.522,179.958 24.469 C 180.318 24.428,180.428 24.318,180.469 23.958 L 180.522 23.500 182.511 23.500 L 184.500 23.500 184.502 26.542 C 184.505 29.995,184.546 30.267,185.093 30.404 C 185.465 30.498,185.490 30.585,185.535 31.960 C 185.583 33.405,185.587 33.417,186.034 33.469 C 186.457 33.518,186.487 33.577,186.534 34.469 C 186.581 35.365,186.608 35.420,187.042 35.469 C 187.426 35.514,187.500 35.602,187.500 36.011 C 187.500 36.443,187.558 36.500,188.000 36.500 C 188.444 36.500,188.500 36.556,188.500 37.000 C 188.500 37.444,188.556 37.500,189.000 37.500 C 189.444 37.500,189.500 37.556,189.500 38.000 C 189.500 38.442,189.557 38.500,189.989 38.500 C 190.398 38.500,190.486 38.574,190.531 38.958 C 190.580 39.392,190.635 39.419,191.531 39.466 C 192.423 39.513,192.482 39.543,192.531 39.966 L 192.583 40.417 197.441 40.461 C 202.487 40.507,203.127 40.438,203.286 39.831 C 203.350 39.583,203.514 39.500,203.936 39.500 C 204.449 39.500,204.500 39.456,204.500 39.008 C 204.500 38.527,204.520 38.516,205.458 38.467 C 206.365 38.419,206.419 38.392,206.469 37.959 C 206.506 37.641,206.642 37.471,206.912 37.403 C 207.328 37.298,207.494 36.913,207.498 36.042 C 207.500 35.551,207.547 35.500,208.000 35.500 C 208.444 35.500,208.500 35.444,208.500 35.000 C 208.500 34.630,208.578 34.500,208.800 34.500 C 209.351 34.500,209.500 34.141,209.500 32.819 L 209.500 31.538 210.000 31.464 L 210.500 31.391 210.500 32.446 C 210.500 33.293,210.551 33.500,210.762 33.500 C 211.204 33.500,211.476 33.920,211.531 34.686 C 211.577 35.335,211.632 35.422,212.021 35.467 C 212.395 35.511,212.472 35.616,212.550 36.199 C 212.665 37.058,212.944 37.335,213.810 37.451 C 214.437 37.535,214.500 37.588,214.500 38.022 C 214.500 38.440,214.562 38.500,214.989 38.500 C 215.398 38.500,215.486 38.574,215.531 38.958 C 215.580 39.392,215.635 39.419,216.531 39.466 C 217.423 39.513,217.482 39.543,217.531 39.966 L 217.583 40.417 222.480 40.461 L 227.376 40.505 227.845 40.014 C 228.139 39.706,228.521 39.503,228.866 39.470 C 229.327 39.425,229.425 39.342,229.469 38.958 C 229.519 38.530,229.574 38.500,230.311 38.500 C 231.140 38.500,231.500 38.292,231.500 37.813 C 231.500 37.655,231.725 37.301,232.000 37.026 C 232.339 36.687,232.500 36.360,232.500 36.013 C 232.500 35.554,232.553 35.500,233.000 35.500 C 233.457 35.500,233.500 35.452,233.500 34.936 C 233.500 34.514,233.583 34.350,233.831 34.286 C 234.268 34.171,234.500 33.519,234.500 32.406 C 234.500 31.645,234.548 31.500,234.800 31.500 C 235.261 31.500,235.500 31.159,235.500 30.500 C 235.500 30.170,235.410 29.810,235.300 29.700 C 235.144 29.544,235.145 29.500,235.303 29.500 C 235.458 29.500,235.495 28.566,235.461 25.542 L 235.417 21.583 234.958 21.531 C 234.502 21.478,234.500 21.471,234.500 20.189 C 234.500 18.878,234.350 18.500,233.830 18.500 C 233.636 18.500,233.517 18.256,233.405 17.625 C 233.278 16.910,233.183 16.740,232.885 16.698 C 232.610 16.659,232.507 16.515,232.468 16.115 C 232.425 15.674,232.338 15.574,231.958 15.531 C 231.655 15.496,231.500 15.380,231.500 15.189 C 231.500 14.794,231.174 14.500,230.736 14.500 C 230.513 14.500,230.339 14.372,230.286 14.169 C 230.187 13.793,229.547 13.500,228.824 13.500 C 228.499 13.500,228.176 13.333,227.858 13.000 L 227.381 12.500 222.534 12.500 C 217.531 12.500,216.869 12.576,216.714 13.169 C 216.648 13.422,216.485 13.501,216.022 13.502 C 215.081 13.506,214.704 13.664,214.594 14.099 C 214.535 14.335,214.371 14.500,214.197 14.500 C 213.816 14.500,213.500 14.817,213.500 15.200 C 213.500 15.378,213.378 15.500,213.200 15.500 C 212.746 15.500,212.500 15.838,212.500 16.462 C 212.500 17.062,212.189 17.500,211.762 17.500 C 211.582 17.500,211.500 17.657,211.500 18.000 C 211.500 18.370,211.422 18.500,211.200 18.500 C 210.649 18.500,210.500 18.862,210.483 20.242 C 210.473 21.055,210.421 21.419,210.352 21.167 C 210.282 20.914,210.094 20.729,209.876 20.698 C 209.557 20.652,209.510 20.526,209.466 19.614 C 209.419 18.628,209.397 18.581,208.958 18.531 C 208.536 18.482,208.500 18.420,208.500 17.751 C 208.500 17.014,208.191 16.500,207.749 16.500 C 207.624 16.500,207.498 16.294,207.469 16.042 C 207.428 15.685,207.318 15.572,206.968 15.532 C 206.622 15.492,206.508 15.378,206.468 15.032 C 206.428 14.677,206.317 14.572,205.939 14.529 C 205.630 14.493,205.431 14.357,205.375 14.141 C 205.273 13.751,204.705 13.500,203.925 13.500 C 203.513 13.500,203.350 13.415,203.286 13.169 C 203.130 12.575,202.470 12.500,197.393 12.500 L 192.474 12.500 191.974 13.000 C 191.699 13.275,191.298 13.500,191.081 13.500 C 190.457 13.500,189.808 13.810,189.719 14.151 C 189.672 14.332,189.434 14.505,189.156 14.560 C 188.822 14.627,188.643 14.785,188.570 15.078 C 188.511 15.310,188.365 15.500,188.244 15.500 C 187.806 15.500,187.500 16.019,187.500 16.762 C 187.500 17.471,187.480 17.500,187.000 17.500 C 186.543 17.500,186.500 17.548,186.500 18.064 C 186.500 18.487,186.417 18.649,186.167 18.715 C 185.984 18.763,185.764 18.978,185.678 19.193 C 185.572 19.456,185.518 18.426,185.511 16.042 L 185.500 12.500 182.700 12.500 C 179.806 12.500,179.500 12.567,179.500 13.200 C 179.500 13.422,179.370 13.500,179.000 13.500 C 178.555 13.500,178.500 13.445,178.500 12.995 L 178.500 12.490 173.500 12.537 L 168.500 12.583 168.500 9.542 L 168.500 6.500 156.000 6.500 L 143.500 6.500 143.500 11.000 M258.448 8.101 C 259.280 8.165,259.757 8.289,260.007 8.506 C 260.205 8.678,260.641 8.908,260.975 9.018 C 261.310 9.127,261.764 9.374,261.984 9.567 C 262.814 10.291,263.858 11.433,264.096 11.875 C 264.231 12.127,264.407 12.333,264.486 12.333 C 264.701 12.333,264.837 12.772,265.070 14.218 C 265.354 15.985,265.323 16.005,262.338 15.983 C 259.443 15.962,259.294 15.919,259.083 15.051 C 258.452 12.463,254.501 11.688,252.731 13.805 C 251.866 14.840,251.743 17.153,252.515 17.868 C 252.753 18.088,253.015 18.379,253.099 18.513 C 253.369 18.951,255.266 20.160,255.688 20.164 C 255.837 20.165,256.053 20.280,256.168 20.418 C 256.283 20.557,256.798 20.791,257.313 20.939 C 257.829 21.087,258.550 21.378,258.917 21.585 C 259.283 21.791,259.804 22.012,260.073 22.075 C 260.343 22.137,260.755 22.325,260.990 22.492 C 261.225 22.659,261.691 22.910,262.027 23.050 C 263.461 23.647,264.661 25.127,265.313 27.099 C 266.289 30.055,265.820 33.530,264.271 34.816 C 264.122 34.940,264.000 35.141,264.000 35.263 C 264.000 35.514,262.679 36.593,261.379 37.405 C 259.663 38.476,252.894 38.557,251.497 37.524 C 251.248 37.340,250.754 37.069,250.397 36.920 C 249.652 36.609,248.638 35.678,248.125 34.833 C 247.931 34.512,247.617 34.089,247.427 33.893 C 247.006 33.454,246.281 31.376,246.359 30.829 C 246.437 30.290,246.842 30.203,249.333 30.186 C 251.891 30.169,251.591 29.978,252.870 32.426 C 253.028 32.728,253.300 33.020,253.473 33.075 C 253.647 33.130,253.923 33.323,254.087 33.504 C 254.333 33.775,254.602 33.833,255.619 33.833 C 259.541 33.833,261.403 30.491,258.953 27.849 C 258.606 27.476,258.088 27.049,257.802 26.900 C 257.516 26.752,257.137 26.496,256.960 26.331 C 256.783 26.167,256.366 25.981,256.033 25.918 C 255.700 25.856,255.233 25.666,254.995 25.497 C 254.758 25.327,254.343 25.139,254.073 25.079 C 253.593 24.971,251.991 24.268,250.833 23.656 C 250.512 23.487,249.947 23.204,249.576 23.028 C 246.428 21.533,244.914 15.706,246.846 12.521 C 248.159 10.357,248.641 9.867,250.167 9.147 C 250.579 8.953,251.071 8.653,251.259 8.482 C 251.529 8.236,252.002 8.143,253.509 8.041 C 255.398 7.913,256.127 7.922,258.448 8.101 M20.357 8.176 C 22.201 8.363,24.024 8.916,25.000 9.584 C 25.321 9.804,25.754 10.046,25.963 10.122 C 27.325 10.620,29.823 14.154,29.965 15.783 C 30.059 16.872,30.039 16.879,26.895 16.805 L 24.583 16.750 23.750 15.938 C 23.292 15.491,22.692 15.016,22.417 14.882 C 22.142 14.748,21.668 14.501,21.364 14.335 C 20.086 13.634,16.320 13.784,15.168 14.583 C 14.836 14.812,14.494 15.000,14.408 15.001 C 14.121 15.002,12.188 16.836,12.076 17.213 C 12.016 17.417,11.780 17.859,11.553 18.196 C 10.555 19.672,10.425 27.380,11.380 28.468 C 11.516 28.623,11.792 29.077,11.994 29.477 C 13.161 31.799,15.775 32.996,19.682 32.999 C 22.668 33.001,25.088 31.213,26.208 28.178 C 26.998 26.037,27.244 26.167,22.374 26.167 C 17.749 26.167,18.000 26.291,18.000 24.008 C 18.000 22.979,18.072 22.328,18.200 22.200 C 18.519 21.881,30.316 21.919,31.089 22.241 L 31.667 22.483 31.667 25.399 C 31.667 27.961,31.628 28.381,31.349 28.865 C 31.175 29.169,30.977 29.679,30.910 30.000 C 30.843 30.321,30.611 30.844,30.394 31.164 C 30.177 31.483,30.000 31.832,30.000 31.940 C 30.000 32.702,25.984 36.600,24.802 36.985 C 24.464 37.096,24.008 37.327,23.788 37.500 C 22.597 38.437,15.359 38.507,13.706 37.598 C 13.455 37.461,12.940 37.201,12.560 37.021 C 12.181 36.841,11.819 36.612,11.757 36.511 C 11.695 36.411,11.368 36.185,11.030 36.011 C 8.901 34.908,6.803 31.870,5.568 28.104 C 4.894 26.047,4.827 19.709,5.464 18.198 C 5.669 17.711,5.915 16.963,6.011 16.536 C 6.218 15.610,6.913 14.471,8.485 12.480 C 8.968 11.869,10.872 10.328,11.626 9.938 C 11.923 9.784,12.167 9.594,12.167 9.515 C 12.167 8.718,17.353 7.870,20.357 8.176 M165.667 8.330 C 166.002 8.542,166.144 12.376,165.831 12.753 C 165.663 12.955,165.053 13.000,162.469 13.000 C 160.521 13.000,159.182 13.069,158.974 13.181 C 158.638 13.360,158.637 13.421,158.759 25.474 C 158.875 37.010,158.867 37.598,158.582 37.835 C 158.188 38.162,153.856 38.198,153.470 37.877 C 153.256 37.700,153.207 35.997,153.115 25.566 C 153.038 16.851,152.954 13.396,152.817 13.230 C 152.667 13.050,151.957 12.999,149.521 12.998 C 145.386 12.994,145.583 13.110,145.583 10.687 C 145.583 7.890,144.452 8.166,155.893 8.169 C 161.604 8.171,165.517 8.235,165.667 8.330 M118.613 12.609 C 118.551 12.671,118.500 12.897,118.500 13.111 C 118.500 13.465,118.427 13.500,117.700 13.500 C 116.860 13.500,116.500 13.707,116.500 14.189 C 116.500 14.380,116.345 14.496,116.042 14.531 C 115.682 14.572,115.572 14.682,115.531 15.042 C 115.496 15.345,115.380 15.500,115.189 15.500 C 114.746 15.500,114.500 15.843,114.500 16.462 C 114.500 17.044,114.296 17.355,113.789 17.547 C 113.517 17.650,113.497 17.957,113.539 21.538 L 113.583 25.417 114.034 25.469 C 114.457 25.518,114.487 25.577,114.534 26.469 C 114.581 27.365,114.608 27.420,115.042 27.469 C 115.345 27.504,115.500 27.620,115.500 27.811 C 115.500 28.293,115.860 28.500,116.700 28.500 C 117.359 28.500,117.500 28.553,117.500 28.800 C 117.500 28.965,117.590 29.190,117.700 29.300 C 117.856 29.456,117.300 29.500,115.200 29.500 L 112.500 29.500 112.500 30.906 C 112.500 32.489,112.687 33.159,113.161 33.284 C 113.430 33.354,113.493 33.542,113.534 34.392 C 113.581 35.372,113.603 35.419,114.042 35.469 C 114.426 35.514,114.500 35.602,114.500 36.011 C 114.500 36.443,114.558 36.500,115.000 36.500 C 115.480 36.500,115.500 36.529,115.500 37.238 C 115.500 38.188,115.810 38.500,116.751 38.500 C 117.420 38.500,117.482 38.536,117.531 38.958 C 117.580 39.392,117.635 39.419,118.531 39.466 C 119.423 39.513,119.482 39.543,119.531 39.966 L 119.583 40.417 124.813 40.461 C 130.200 40.506,130.500 40.474,130.500 39.843 C 130.500 39.633,130.725 39.521,131.375 39.405 C 132.098 39.277,132.259 39.185,132.303 38.875 C 132.340 38.614,132.470 38.500,132.728 38.500 C 133.294 38.500,133.500 38.179,133.500 37.300 C 133.500 36.522,133.514 36.500,134.000 36.500 L 134.500 36.500 134.500 35.500 C 134.500 34.648,134.544 34.500,134.800 34.500 C 135.427 34.500,135.500 34.186,135.500 31.500 C 135.500 28.821,135.426 28.500,134.808 28.500 C 134.570 28.500,134.507 28.324,134.467 27.542 C 134.419 26.634,134.392 26.581,133.958 26.531 C 133.574 26.486,133.500 26.398,133.500 25.989 C 133.500 25.557,133.442 25.500,133.000 25.500 C 132.556 25.500,132.500 25.444,132.500 25.000 C 132.500 24.556,132.444 24.500,132.003 24.500 C 131.612 24.500,131.484 24.411,131.402 24.083 C 131.344 23.854,131.174 23.651,131.024 23.632 C 130.873 23.613,131.800 23.557,133.083 23.507 L 135.417 23.417 135.468 22.424 C 135.536 21.097,135.415 20.694,134.914 20.568 C 134.514 20.467,134.500 20.417,134.500 19.042 C 134.500 17.686,134.477 17.598,134.011 17.152 C 133.706 16.861,133.503 16.479,133.470 16.134 C 133.425 15.673,133.342 15.575,132.958 15.531 C 132.574 15.486,132.500 15.398,132.500 14.989 C 132.500 14.559,132.441 14.500,132.011 14.500 C 131.602 14.500,131.514 14.426,131.469 14.042 C 131.420 13.608,131.365 13.581,130.469 13.534 C 129.577 13.487,129.518 13.457,129.469 13.034 L 129.417 12.583 124.072 12.539 C 121.132 12.515,118.676 12.546,118.613 12.609 M47.201 14.845 C 48.301 15.235,49.153 15.727,49.703 16.293 C 50.160 16.762,50.802 17.681,51.043 18.208 C 51.636 19.508,52.167 18.833,52.167 16.781 C 52.167 15.676,52.226 15.325,52.442 15.145 C 52.857 14.801,57.226 14.820,57.566 15.167 C 57.987 15.597,58.163 37.377,57.749 37.834 C 57.481 38.131,57.235 38.167,55.466 38.167 C 52.692 38.167,52.575 38.094,52.425 36.288 C 52.299 34.786,52.241 34.617,51.783 34.448 C 51.559 34.365,51.411 34.469,51.200 34.859 C 50.938 35.343,50.138 36.346,49.750 36.679 C 48.631 37.638,48.323 37.812,47.417 37.998 C 46.867 38.111,46.154 38.313,45.833 38.447 C 45.006 38.794,44.073 38.771,42.828 38.374 C 42.235 38.184,41.559 37.988,41.325 37.937 C 37.716 37.148,34.633 29.252,35.735 23.618 C 35.864 22.957,36.012 22.117,36.064 21.750 C 36.164 21.043,37.231 18.808,37.934 17.835 C 39.217 16.059,40.289 15.295,42.250 14.758 C 43.167 14.508,43.992 14.278,44.083 14.248 C 44.462 14.123,45.982 14.414,47.201 14.845 M126.914 14.825 C 127.738 15.021,128.563 15.320,128.747 15.488 C 128.932 15.657,129.320 15.914,129.609 16.060 C 129.898 16.206,130.311 16.555,130.526 16.835 C 130.741 17.116,131.131 17.605,131.393 17.923 C 131.916 18.558,132.547 20.349,132.392 20.755 C 131.916 21.994,127.791 21.696,127.103 20.373 C 126.186 18.611,121.919 18.217,121.091 19.818 C 120.204 21.534,121.281 23.399,123.555 24.083 C 123.964 24.206,124.528 24.425,124.808 24.570 C 125.088 24.715,125.714 24.916,126.200 25.017 C 126.686 25.117,127.233 25.293,127.417 25.408 C 127.600 25.522,128.162 25.751,128.667 25.916 C 132.228 27.084,133.986 31.234,132.269 34.417 C 131.349 36.122,130.887 36.712,130.198 37.061 C 129.860 37.233,129.457 37.484,129.303 37.619 C 129.018 37.869,126.989 38.398,125.333 38.653 C 124.659 38.757,124.227 38.731,123.699 38.554 C 123.304 38.422,122.408 38.204,121.708 38.070 C 121.008 37.936,120.316 37.718,120.170 37.586 C 120.024 37.454,119.567 37.197,119.155 37.015 C 117.430 36.251,115.079 33.229,115.407 32.196 C 115.776 31.035,120.134 31.261,120.905 32.481 C 122.587 35.145,127.833 34.567,127.833 31.717 C 127.833 30.834,126.752 29.589,125.630 29.178 C 125.329 29.068,124.708 28.823,124.250 28.634 C 123.792 28.445,122.929 28.156,122.333 27.991 C 121.305 27.707,119.550 27.046,118.687 26.617 C 116.547 25.555,115.344 22.720,115.826 19.872 C 116.065 18.460,117.271 16.688,118.417 16.066 C 118.692 15.916,119.069 15.656,119.254 15.487 C 119.568 15.200,119.986 15.071,122.554 14.461 C 123.660 14.199,124.621 14.279,126.914 14.825 M199.496 14.533 C 199.723 14.618,200.431 14.797,201.068 14.931 C 203.274 15.395,206.178 18.061,206.990 20.367 C 207.161 20.853,207.421 21.483,207.568 21.769 C 207.908 22.430,208.251 25.524,208.097 26.548 C 207.893 27.911,208.362 27.833,200.363 27.839 C 192.730 27.844,192.664 27.852,192.670 28.685 C 192.685 30.776,193.677 32.541,195.241 33.260 C 196.966 34.052,197.266 34.029,200.000 32.892 C 200.321 32.758,200.787 32.363,201.037 32.013 C 201.590 31.237,201.883 31.167,204.584 31.167 C 206.200 31.167,206.669 31.219,206.834 31.418 C 207.118 31.760,206.958 33.044,206.562 33.603 C 206.391 33.846,206.166 34.188,206.064 34.363 C 205.726 34.943,203.760 36.712,203.186 36.953 C 202.876 37.083,202.416 37.342,202.164 37.528 C 201.913 37.714,201.229 37.962,200.645 38.079 C 200.061 38.196,199.123 38.416,198.560 38.567 C 197.620 38.821,197.443 38.822,196.393 38.581 C 195.765 38.437,194.778 38.218,194.201 38.095 C 193.623 37.972,193.023 37.759,192.867 37.622 C 192.711 37.485,192.326 37.243,192.012 37.084 C 191.224 36.684,189.368 34.726,189.009 33.914 C 188.846 33.546,188.594 33.147,188.449 33.026 C 188.304 32.906,188.097 32.382,187.989 31.862 C 187.882 31.342,187.640 30.542,187.452 30.083 C 186.971 28.910,186.918 23.782,187.377 22.767 C 187.538 22.409,187.789 21.660,187.934 21.101 C 188.614 18.477,191.650 15.353,193.896 14.967 C 194.366 14.886,194.946 14.743,195.185 14.650 C 196.338 14.197,198.448 14.140,199.496 14.533 M224.976 14.682 C 225.558 14.857,226.196 15.000,226.394 15.000 C 227.165 15.000,230.833 17.908,230.833 18.519 C 230.833 18.586,231.023 18.867,231.255 19.142 C 232.601 20.742,233.645 27.053,232.667 27.671 C 232.520 27.763,229.508 27.829,225.367 27.831 C 217.835 27.834,217.133 27.905,217.414 28.636 C 217.474 28.790,217.655 29.487,217.818 30.185 C 218.692 33.937,223.095 34.996,225.790 32.103 L 226.583 31.251 229.110 31.192 C 231.961 31.124,232.145 31.206,231.943 32.451 C 231.734 33.743,229.455 36.359,228.027 36.947 C 227.691 37.086,227.264 37.340,227.077 37.512 C 226.890 37.684,226.177 37.939,225.493 38.078 C 224.810 38.217,223.846 38.442,223.352 38.578 C 222.578 38.792,222.315 38.795,221.436 38.598 C 220.875 38.473,219.854 38.244,219.167 38.091 C 218.479 37.938,217.767 37.676,217.583 37.509 C 217.400 37.342,217.025 37.089,216.750 36.946 C 216.475 36.802,215.987 36.412,215.667 36.078 C 215.346 35.743,214.888 35.269,214.648 35.023 C 214.409 34.778,214.160 34.409,214.095 34.204 C 214.030 33.999,213.810 33.626,213.605 33.374 C 213.401 33.123,212.975 32.130,212.659 31.168 L 212.083 29.420 212.083 26.168 C 212.083 23.181,212.113 22.849,212.450 22.083 C 212.652 21.625,212.903 20.912,213.007 20.500 C 213.111 20.087,213.330 19.600,213.494 19.417 C 213.658 19.233,213.884 18.904,213.998 18.684 C 214.800 17.133,217.248 15.285,218.988 14.919 C 219.657 14.779,220.274 14.620,220.360 14.567 C 221.076 14.125,223.302 14.180,224.976 14.682 M283.000 14.593 C 283.412 14.723,284.150 14.904,284.638 14.996 C 285.127 15.088,285.747 15.333,286.017 15.540 C 287.286 16.514,288.088 17.243,288.595 17.884 C 288.898 18.269,289.291 18.733,289.467 18.917 C 289.644 19.100,289.843 19.438,289.911 19.667 C 289.979 19.896,290.205 20.383,290.413 20.750 C 291.111 21.979,291.625 26.319,291.172 27.167 C 290.816 27.835,290.900 27.828,283.484 27.831 C 275.116 27.834,275.704 27.690,275.978 29.667 C 276.388 32.631,279.459 34.608,281.862 33.457 C 282.198 33.296,282.708 33.117,282.995 33.059 C 283.313 32.996,283.684 32.736,283.943 32.397 C 284.757 31.330,285.223 31.166,287.436 31.169 C 290.266 31.172,290.233 31.157,290.104 32.388 C 289.964 33.731,287.703 36.546,286.464 36.923 C 286.254 36.987,285.844 37.218,285.552 37.437 C 285.228 37.679,284.530 37.929,283.766 38.075 C 283.077 38.207,282.365 38.394,282.184 38.491 C 281.704 38.747,279.859 38.706,278.884 38.416 C 278.420 38.278,277.641 38.090,277.154 37.998 C 276.666 37.905,276.113 37.689,275.925 37.518 C 275.737 37.347,275.386 37.104,275.145 36.979 C 274.546 36.667,273.483 35.681,272.999 34.988 C 272.779 34.674,272.550 34.379,272.490 34.333 C 272.429 34.287,272.246 33.987,272.083 33.667 C 271.920 33.346,271.651 32.909,271.485 32.697 C 271.319 32.484,271.132 31.959,271.070 31.530 C 271.007 31.101,270.802 30.262,270.614 29.667 C 270.096 28.025,270.102 24.326,270.625 22.880 C 270.831 22.310,271.000 21.665,271.000 21.447 C 271.000 20.989,272.011 19.004,272.649 18.209 C 273.426 17.240,274.678 16.000,274.883 15.995 C 274.993 15.993,275.378 15.768,275.738 15.495 C 276.098 15.223,276.596 15.000,276.845 15.000 C 277.094 15.000,277.775 14.855,278.357 14.678 C 280.180 14.125,281.445 14.102,283.000 14.593 M362.513 14.657 C 363.717 14.927,364.827 15.260,364.979 15.398 C 365.132 15.536,365.571 15.790,365.957 15.962 C 367.872 16.819,370.554 21.670,369.487 22.345 C 369.217 22.516,366.256 22.552,365.131 22.397 C 364.566 22.320,364.315 22.187,364.108 21.856 C 362.429 19.167,359.064 18.816,357.014 21.116 C 354.089 24.397,355.168 32.492,358.610 33.090 C 358.962 33.152,359.530 33.261,359.873 33.333 C 361.436 33.661,362.813 32.947,364.273 31.052 C 364.787 30.384,369.328 30.201,369.667 30.834 C 370.427 32.254,368.395 35.512,365.917 36.845 C 365.550 37.043,365.097 37.344,364.910 37.515 C 364.719 37.690,364.014 37.932,363.295 38.070 C 362.593 38.204,361.687 38.426,361.282 38.564 C 360.595 38.797,358.832 38.725,358.380 38.445 C 358.307 38.400,357.655 38.241,356.931 38.092 C 356.069 37.914,355.447 37.678,355.128 37.410 C 354.860 37.184,354.577 37.000,354.499 37.000 C 354.046 37.000,351.000 33.335,351.000 32.790 C 351.000 32.711,350.815 32.256,350.590 31.778 C 349.567 29.618,349.570 22.973,350.594 21.048 C 350.817 20.628,351.000 20.155,351.000 19.998 C 351.000 19.841,351.222 19.421,351.494 19.065 C 351.766 18.708,352.226 18.108,352.517 17.731 C 352.808 17.354,353.376 16.791,353.781 16.481 C 354.185 16.171,354.722 15.754,354.973 15.556 C 355.450 15.180,357.754 14.534,359.333 14.332 C 359.837 14.268,360.266 14.205,360.286 14.191 C 360.306 14.178,361.308 14.387,362.513 14.657 M386.833 14.586 C 387.246 14.710,388.009 14.896,388.529 14.998 C 389.049 15.101,389.568 15.298,389.683 15.437 C 389.798 15.575,390.123 15.807,390.405 15.952 C 391.413 16.471,393.671 19.064,394.002 20.083 C 394.121 20.450,394.354 21.012,394.520 21.333 C 395.145 22.537,395.425 26.664,394.933 27.415 L 394.659 27.833 387.496 27.833 C 378.949 27.833,379.579 27.667,379.926 29.833 C 380.068 30.716,380.262 31.334,380.469 31.562 C 380.646 31.757,380.879 32.086,380.985 32.292 C 381.218 32.744,382.886 33.618,383.790 33.762 C 384.949 33.948,387.181 33.106,388.000 32.174 C 388.321 31.809,388.794 31.433,389.053 31.338 C 389.624 31.129,393.491 31.114,393.816 31.319 C 394.256 31.598,393.954 33.396,393.345 34.127 C 392.180 35.522,390.889 36.700,390.180 37.014 C 389.767 37.197,389.302 37.461,389.148 37.600 C 388.993 37.740,388.203 38.001,387.392 38.180 C 386.580 38.359,385.609 38.575,385.233 38.660 C 384.736 38.772,384.233 38.743,383.399 38.555 C 382.767 38.413,381.821 38.200,381.298 38.082 C 379.573 37.693,376.826 35.480,376.083 33.880 C 375.923 33.534,375.678 33.121,375.541 32.963 C 375.324 32.715,375.094 31.992,374.332 29.167 C 374.067 28.185,374.142 23.853,374.436 23.083 C 374.577 22.717,374.801 21.929,374.935 21.333 C 375.069 20.738,375.352 19.988,375.563 19.667 C 375.774 19.346,376.062 18.896,376.203 18.667 C 376.632 17.970,378.515 16.000,378.752 16.000 C 378.874 16.000,379.193 15.816,379.460 15.591 C 379.757 15.341,380.426 15.075,381.181 14.905 C 381.861 14.753,382.829 14.529,383.333 14.408 C 384.339 14.167,385.668 14.234,386.833 14.586 M68.989 14.997 C 69.770 15.221,69.828 15.366,69.831 17.088 C 69.834 19.152,70.347 19.944,70.934 18.792 C 72.156 16.391,75.484 14.255,76.583 15.166 C 76.857 15.393,76.960 20.376,76.700 20.786 C 76.629 20.897,75.927 21.062,75.140 21.151 C 73.151 21.377,71.602 22.124,70.962 23.167 C 69.857 24.965,69.918 24.489,69.917 31.349 C 69.917 36.414,69.873 37.668,69.688 37.891 C 69.385 38.257,65.787 38.291,64.939 37.937 L 64.388 37.707 64.278 31.812 C 64.132 24.047,64.141 15.465,64.294 15.225 C 64.533 14.851,67.910 14.687,68.989 14.997 M85.156 15.051 C 85.682 15.234,85.751 15.339,85.996 16.333 C 86.142 16.929,86.383 17.604,86.531 17.833 C 86.679 18.063,86.882 18.646,86.983 19.131 C 87.083 19.615,87.306 20.290,87.477 20.631 C 87.648 20.971,87.878 21.634,87.989 22.102 C 88.099 22.571,88.371 23.315,88.595 23.756 C 88.818 24.196,89.000 24.758,89.000 25.003 C 89.000 25.249,89.179 25.786,89.397 26.196 C 89.615 26.607,89.875 27.324,89.975 27.790 C 90.162 28.664,91.050 30.575,91.356 30.764 C 91.632 30.934,91.860 30.588,92.013 29.768 C 92.091 29.349,92.308 28.672,92.494 28.263 C 92.680 27.854,92.917 27.122,93.020 26.635 C 93.123 26.148,93.340 25.488,93.501 25.167 C 93.663 24.846,93.887 24.133,94.000 23.583 C 94.113 23.033,94.342 22.313,94.510 21.984 C 94.677 21.654,94.930 20.883,95.072 20.272 C 95.214 19.660,95.436 18.993,95.566 18.788 C 95.696 18.584,95.893 17.967,96.004 17.417 C 96.471 15.091,96.806 14.842,99.467 14.837 C 101.720 14.833,102.641 15.083,102.410 15.636 C 102.345 15.790,102.217 16.142,102.124 16.417 C 102.032 16.692,101.844 17.217,101.707 17.583 C 100.828 19.936,100.422 21.046,100.084 22.009 C 99.874 22.610,99.544 23.397,99.351 23.757 C 99.158 24.117,99.000 24.563,99.000 24.748 C 99.000 24.932,98.775 25.559,98.500 26.140 C 98.225 26.721,98.000 27.325,98.000 27.482 C 98.000 27.639,97.818 28.139,97.596 28.592 C 97.373 29.046,97.103 29.753,96.995 30.165 C 96.887 30.576,96.619 31.251,96.400 31.664 C 96.180 32.076,96.000 32.567,96.000 32.753 C 96.000 32.939,95.777 33.540,95.505 34.088 C 95.233 34.635,95.008 35.235,95.005 35.421 C 95.002 35.607,94.777 36.207,94.505 36.754 C 94.233 37.302,94.008 37.908,94.005 38.100 C 94.002 38.293,93.813 38.803,93.584 39.233 C 93.355 39.664,93.079 40.369,92.972 40.800 C 92.864 41.231,92.601 41.913,92.388 42.316 C 92.175 42.720,92.000 43.207,91.999 43.400 C 91.999 43.592,91.774 44.200,91.500 44.750 C 91.226 45.300,91.001 45.908,91.001 46.100 C 91.000 46.293,90.813 46.803,90.584 47.233 C 90.355 47.664,90.084 48.348,89.982 48.753 C 89.702 49.864,89.588 49.909,86.886 49.974 C 83.743 50.049,83.372 49.665,84.589 47.589 C 84.815 47.203,85.000 46.736,85.000 46.550 C 85.000 46.365,85.225 45.792,85.500 45.277 C 85.775 44.761,86.000 44.207,86.001 44.045 C 86.001 43.883,86.226 43.300,86.500 42.750 C 86.774 42.200,86.999 41.643,86.999 41.513 C 87.000 41.383,87.243 40.783,87.540 40.180 C 87.980 39.285,88.079 38.885,88.079 38.000 C 88.079 37.115,87.980 36.715,87.540 35.820 C 87.243 35.217,87.000 34.586,87.000 34.418 C 87.000 34.250,86.824 33.806,86.608 33.431 C 86.392 33.057,86.130 32.397,86.024 31.967 C 85.919 31.536,85.645 30.831,85.416 30.400 C 85.187 29.969,85.000 29.497,84.999 29.350 C 84.999 29.203,84.774 28.633,84.500 28.083 C 84.226 27.533,84.000 26.933,83.999 26.750 C 83.997 26.567,83.816 26.103,83.597 25.719 C 83.377 25.335,83.145 24.772,83.081 24.469 C 83.016 24.165,82.747 23.468,82.482 22.919 C 82.217 22.371,82.000 21.808,81.999 21.669 C 81.999 21.530,81.774 20.967,81.500 20.417 C 81.226 19.867,81.001 19.301,81.001 19.160 C 81.000 19.019,80.848 18.607,80.663 18.244 C 80.477 17.880,80.177 17.096,79.996 16.500 L 79.667 15.417 80.019 15.125 C 80.445 14.771,84.195 14.717,85.156 15.051 M176.016 15.119 C 176.488 15.398,176.500 15.440,176.500 16.775 C 176.500 18.979,177.229 19.832,177.937 18.458 C 179.059 16.282,181.801 14.506,183.090 15.120 L 183.667 15.395 183.667 18.025 C 183.667 21.077,183.736 20.958,181.842 21.166 C 180.125 21.354,178.374 22.109,177.984 22.829 C 177.809 23.152,177.520 23.604,177.342 23.833 C 176.802 24.529,176.600 27.511,176.731 32.858 C 176.859 38.076,176.899 37.895,175.564 38.095 C 174.448 38.262,171.492 38.091,171.343 37.850 C 170.945 37.205,170.881 15.575,171.276 15.138 C 171.671 14.701,175.284 14.687,176.016 15.119 M301.741 15.204 C 301.932 15.477,302.000 15.998,302.000 17.193 C 302.000 19.602,302.391 20.319,302.983 18.996 C 303.318 18.248,303.410 18.133,304.707 16.833 C 306.021 15.517,306.529 15.184,307.514 14.997 C 308.942 14.727,309.000 14.844,309.000 18.000 C 309.000 21.128,309.024 21.086,307.167 21.210 C 304.914 21.361,303.676 22.170,302.644 24.167 L 302.083 25.250 302.000 31.548 C 301.903 38.906,302.195 38.161,299.406 38.164 C 296.467 38.168,296.744 38.848,296.610 31.310 C 296.549 27.886,296.450 22.891,296.390 20.211 L 296.281 15.339 296.849 15.093 C 297.858 14.655,301.412 14.735,301.741 15.204 M317.401 14.994 C 317.666 15.095,317.861 15.328,317.923 15.619 C 317.977 15.874,318.174 16.496,318.360 17.000 C 318.546 17.504,318.802 18.425,318.929 19.046 C 319.057 19.666,319.308 20.529,319.487 20.962 C 319.667 21.396,319.901 22.200,320.007 22.750 C 320.114 23.300,320.340 24.087,320.510 24.500 C 320.680 24.912,320.896 25.691,320.991 26.229 C 321.086 26.768,321.282 27.443,321.427 27.729 C 321.573 28.016,321.798 28.800,321.929 29.472 C 322.158 30.650,323.257 33.333,323.511 33.333 C 323.679 33.333,324.000 32.378,324.000 31.878 C 324.000 31.655,324.185 30.935,324.412 30.278 C 324.638 29.621,324.934 28.507,325.068 27.803 C 325.203 27.099,325.422 26.312,325.555 26.053 C 325.688 25.795,325.913 24.971,326.053 24.223 C 326.194 23.475,326.418 22.650,326.551 22.390 C 326.685 22.130,326.886 21.364,326.999 20.688 C 327.111 20.012,327.341 19.148,327.509 18.768 C 327.677 18.388,327.897 17.562,327.998 16.931 C 328.312 14.964,328.530 14.833,331.493 14.833 C 334.177 14.833,334.628 15.449,333.528 17.614 C 333.351 17.964,333.114 18.700,333.001 19.250 C 332.889 19.800,332.655 20.566,332.481 20.952 C 332.307 21.338,332.065 22.125,331.943 22.702 C 331.821 23.278,331.594 23.996,331.438 24.296 C 331.282 24.596,331.075 25.269,330.978 25.791 C 330.882 26.312,330.668 27.004,330.504 27.328 C 330.340 27.652,330.116 28.367,330.006 28.917 C 329.896 29.467,329.668 30.190,329.498 30.524 C 329.329 30.858,329.099 31.608,328.987 32.191 C 328.876 32.773,328.642 33.534,328.469 33.882 C 328.295 34.230,328.074 34.941,327.978 35.462 C 327.506 38.011,327.249 38.167,323.513 38.166 C 319.585 38.166,319.392 38.095,318.999 36.500 C 318.853 35.904,318.614 35.192,318.469 34.917 C 318.324 34.642,318.113 33.972,318.001 33.429 C 317.889 32.886,317.657 32.172,317.485 31.842 C 317.313 31.512,317.098 30.851,317.008 30.374 C 316.917 29.896,316.700 29.223,316.525 28.878 C 316.351 28.533,316.124 27.854,316.021 27.369 C 315.918 26.885,315.693 26.210,315.521 25.869 C 315.349 25.529,315.124 24.854,315.021 24.369 C 314.918 23.885,314.693 23.210,314.520 22.869 C 314.347 22.529,314.115 21.800,314.004 21.250 C 313.893 20.700,313.694 20.080,313.562 19.871 C 313.429 19.663,313.180 18.928,313.008 18.238 C 312.835 17.548,312.624 16.894,312.538 16.784 C 312.148 16.284,312.025 15.538,312.274 15.183 C 312.546 14.794,316.492 14.648,317.401 14.994 M343.994 15.080 C 344.630 15.409,344.633 15.466,344.746 27.686 C 344.831 36.830,344.816 37.640,344.560 37.852 C 344.143 38.199,339.774 38.182,339.437 37.833 C 339.020 37.402,338.843 15.616,339.253 15.163 C 339.643 14.732,343.200 14.670,343.994 15.080 M256.595 16.375 C 256.720 17.083,256.818 17.260,257.108 17.301 C 257.792 17.399,257.739 18.500,257.050 18.500 C 256.550 18.500,256.500 18.455,256.500 18.000 C 256.500 17.556,256.444 17.500,256.000 17.500 C 255.630 17.500,255.500 17.422,255.500 17.200 C 255.500 16.816,255.184 16.500,254.800 16.500 C 254.578 16.500,254.500 16.370,254.500 16.000 C 254.500 15.502,254.503 15.500,255.470 15.500 L 256.439 15.500 256.595 16.375 M21.500 17.000 C 21.500 17.444,21.556 17.500,22.000 17.500 C 22.488 17.500,22.500 17.520,22.500 18.323 C 22.500 18.799,22.588 19.204,22.708 19.282 C 22.823 19.356,21.267 19.454,19.250 19.500 L 15.583 19.583 15.583 24.000 L 15.583 28.417 19.250 28.500 C 21.267 28.546,22.823 28.644,22.708 28.718 C 22.594 28.792,22.500 28.994,22.500 29.165 C 22.500 29.382,22.360 29.494,22.042 29.531 C 21.682 29.572,21.572 29.682,21.531 30.042 L 21.478 30.500 18.989 30.500 C 16.703 30.500,16.500 30.475,16.500 30.200 C 16.500 29.708,16.146 29.500,15.308 29.500 L 14.517 29.500 14.467 28.542 C 14.419 27.634,14.392 27.581,13.958 27.531 L 13.500 27.478 13.500 26.083 C 13.500 24.504,13.313 23.840,12.831 23.714 C 12.309 23.578,12.364 22.540,12.901 22.406 C 13.380 22.286,13.495 21.926,13.498 20.542 C 13.500 19.651,13.543 19.500,13.800 19.500 C 14.293 19.500,14.500 19.146,14.500 18.300 C 14.500 17.522,14.514 17.500,15.000 17.500 C 15.444 17.500,15.500 17.444,15.500 17.000 L 15.500 16.500 18.500 16.500 L 21.500 16.500 21.500 17.000 M195.502 19.650 C 194.908 19.922,194.285 20.318,194.118 20.530 C 193.952 20.743,193.692 21.066,193.541 21.250 C 192.845 22.093,192.446 24.260,192.922 24.608 C 193.351 24.922,201.628 24.937,202.055 24.625 C 202.673 24.173,202.289 21.790,201.440 20.814 C 200.074 19.243,197.496 18.738,195.502 19.650 M220.333 19.669 C 219.737 19.956,219.182 20.313,219.099 20.462 C 219.015 20.610,218.771 20.895,218.555 21.095 C 218.022 21.589,217.320 24.219,217.636 24.536 C 217.997 24.898,226.707 24.936,227.005 24.577 C 227.271 24.257,227.279 23.025,227.021 22.075 C 226.375 19.691,222.888 18.436,220.333 19.669 M278.583 19.748 C 276.974 20.549,276.000 22.009,276.000 23.621 C 276.000 24.937,275.673 24.862,281.113 24.800 C 285.977 24.744,285.701 24.809,285.717 23.716 C 285.768 20.331,281.821 18.136,278.583 19.748 M382.763 19.580 C 381.099 20.288,380.069 21.623,379.894 23.299 C 379.726 24.906,379.506 24.833,384.531 24.833 C 389.972 24.833,390.023 24.808,389.315 22.478 C 388.481 19.730,385.504 18.414,382.763 19.580 M45.293 19.999 C 42.266 20.533,39.886 26.203,41.565 28.881 C 41.692 29.084,41.890 29.550,42.006 29.917 C 42.269 30.755,42.720 31.358,43.865 32.399 C 45.523 33.907,50.200 32.965,51.012 30.959 C 51.133 30.661,51.384 30.207,51.569 29.951 C 52.309 28.931,52.411 24.186,51.714 23.209 C 51.551 22.980,51.224 22.482,50.989 22.104 C 50.754 21.726,50.304 21.249,49.989 21.045 C 49.674 20.840,49.337 20.606,49.240 20.525 C 48.609 20.002,46.711 19.749,45.293 19.999 M198.500 21.800 C 198.500 21.965,198.590 22.190,198.700 22.300 C 198.856 22.456,198.621 22.500,197.646 22.500 L 196.391 22.500 196.464 22.000 C 196.556 21.379,198.500 21.188,198.500 21.800 M223.536 22.000 L 223.609 22.500 222.500 22.500 L 221.391 22.500 221.464 22.000 C 221.536 21.511,221.558 21.500,222.500 21.500 C 223.442 21.500,223.464 21.511,223.536 22.000 M281.715 21.833 C 281.763 22.016,281.978 22.236,282.193 22.322 C 282.480 22.438,282.177 22.482,281.042 22.489 L 279.500 22.500 279.500 22.000 L 279.500 21.500 280.564 21.500 C 281.487 21.500,281.639 21.544,281.715 21.833 M385.596 21.907 C 385.652 22.132,385.822 22.348,385.974 22.388 C 386.126 22.428,385.607 22.470,384.821 22.481 L 383.391 22.500 383.464 22.000 C 383.568 21.292,385.421 21.211,385.596 21.907 M48.531 22.958 C 48.572 23.318,48.682 23.428,49.042 23.469 L 49.500 23.522 49.500 26.500 L 49.500 29.478 49.042 29.531 C 48.682 29.572,48.572 29.682,48.531 30.042 L 48.478 30.500 46.489 30.500 L 44.500 30.500 44.500 29.762 C 44.500 29.008,44.193 28.500,43.738 28.500 C 43.545 28.500,43.500 28.122,43.500 26.500 C 43.500 24.685,43.528 24.500,43.800 24.500 C 44.293 24.500,44.500 24.146,44.500 23.300 L 44.500 22.500 46.489 22.500 L 48.478 22.500 48.531 22.958 M361.500 23.000 C 361.500 23.444,361.556 23.500,362.000 23.500 C 362.444 23.500,362.500 23.556,362.500 24.000 L 362.500 24.500 367.000 24.500 L 371.500 24.500 371.500 26.500 L 371.500 28.500 367.000 28.500 L 362.500 28.500 362.500 29.000 C 362.500 29.444,362.444 29.500,362.000 29.500 C 361.556 29.500,361.500 29.556,361.500 30.000 C 361.500 30.444,361.444 30.500,361.000 30.500 C 360.725 30.500,360.500 30.560,360.500 30.634 C 360.500 30.707,360.050 30.693,359.500 30.602 L 358.500 30.437 358.500 29.668 C 358.500 28.852,358.289 28.500,357.800 28.500 C 357.528 28.500,357.500 28.315,357.500 26.511 L 357.500 24.522 357.958 24.469 C 358.392 24.419,358.419 24.366,358.467 23.458 L 358.517 22.500 360.008 22.500 L 361.500 22.500 361.500 23.000 M199.500 29.989 C 199.500 30.398,199.426 30.486,199.042 30.531 C 198.682 30.572,198.572 30.682,198.531 31.042 C 198.480 31.484,198.443 31.500,197.500 31.500 C 196.557 31.500,196.520 31.484,196.469 31.042 C 196.428 30.682,196.318 30.572,195.958 30.531 C 195.574 30.486,195.500 30.398,195.500 29.989 L 195.500 29.500 197.500 29.500 L 199.500 29.500 199.500 29.989 M224.500 30.000 C 224.500 30.444,224.444 30.500,224.000 30.500 C 223.556 30.500,223.500 30.556,223.500 31.000 C 223.500 31.754,221.556 31.794,221.469 31.042 C 221.428 30.682,221.318 30.572,220.958 30.531 C 220.574 30.486,220.500 30.398,220.500 29.989 L 220.500 29.500 222.500 29.500 L 224.500 29.500 224.500 30.000 M282.500 29.989 C 282.500 30.398,282.426 30.486,282.042 30.531 C 281.682 30.572,281.572 30.682,281.531 31.042 C 281.444 31.794,279.500 31.754,279.500 31.000 C 279.500 30.556,279.444 30.500,279.000 30.500 C 278.556 30.500,278.500 30.444,278.500 30.000 L 278.500 29.500 280.500 29.500 L 282.500 29.500 282.500 29.989 M386.500 29.989 C 386.500 30.398,386.426 30.486,386.042 30.531 C 385.682 30.572,385.572 30.682,385.531 31.042 C 385.444 31.794,383.500 31.754,383.500 31.000 C 383.500 30.556,383.444 30.500,383.000 30.500 C 382.556 30.500,382.500 30.444,382.500 30.000 L 382.500 29.500 384.500 29.500 L 386.500 29.500 386.500 29.989 " stroke="none" fill="#111111" fill-rule="evenodd"></path><path id="path1" d="M106.306 4.292 C 106.055 4.590,106.091 6.490,106.420 10.200 C 106.580 12.008,107.001 12.500,108.392 12.500 C 109.955 12.500,109.942 12.537,110.080 7.801 C 110.199 3.737,110.340 4.000,108.037 4.000 C 106.827 4.000,106.506 4.054,106.306 4.292 M340.083 4.199 C 337.811 5.488,337.781 8.962,340.031 10.219 C 342.453 11.571,344.917 9.963,344.917 7.030 L 344.917 5.478 344.135 4.739 L 343.353 4.000 341.885 4.005 C 341.077 4.008,340.267 4.095,340.083 4.199 M253.509 8.041 C 252.002 8.143,251.529 8.236,251.259 8.482 C 251.071 8.653,250.579 8.953,250.167 9.147 C 248.641 9.867,248.159 10.357,246.846 12.521 C 244.914 15.706,246.428 21.533,249.576 23.028 C 249.947 23.204,250.512 23.487,250.833 23.656 C 251.991 24.268,253.593 24.971,254.073 25.079 C 254.343 25.139,254.758 25.327,254.995 25.497 C 255.233 25.666,255.700 25.856,256.033 25.918 C 256.366 25.981,256.783 26.167,256.960 26.331 C 257.137 26.496,257.516 26.752,257.802 26.900 C 259.922 27.997,260.736 30.775,259.375 32.269 C 258.090 33.681,254.917 34.421,254.087 33.504 C 253.923 33.323,253.647 33.130,253.473 33.075 C 253.300 33.020,253.028 32.728,252.870 32.426 C 251.591 29.978,251.891 30.169,249.333 30.186 C 246.842 30.203,246.437 30.290,246.359 30.829 C 246.281 31.376,247.006 33.454,247.427 33.893 C 247.617 34.089,247.931 34.512,248.125 34.833 C 248.638 35.678,249.652 36.609,250.397 36.920 C 250.754 37.069,251.248 37.340,251.497 37.524 C 252.894 38.557,259.663 38.476,261.379 37.405 C 262.679 36.593,264.000 35.514,264.000 35.263 C 264.000 35.141,264.122 34.940,264.271 34.816 C 264.764 34.407,265.686 32.205,265.852 31.043 C 266.293 27.951,264.426 24.050,262.027 23.050 C 261.691 22.910,261.225 22.659,260.990 22.492 C 260.755 22.325,260.343 22.137,260.073 22.075 C 259.804 22.012,259.283 21.791,258.917 21.585 C 258.550 21.378,257.829 21.087,257.313 20.939 C 256.798 20.791,256.283 20.557,256.168 20.418 C 256.053 20.280,255.837 20.165,255.688 20.164 C 255.266 20.160,253.369 18.951,253.099 18.513 C 253.015 18.379,252.753 18.088,252.515 17.868 C 251.743 17.153,251.866 14.840,252.731 13.805 C 254.501 11.688,258.452 12.463,259.083 15.051 C 259.294 15.919,259.443 15.962,262.338 15.983 C 265.323 16.005,265.354 15.985,265.070 14.218 C 264.837 12.772,264.701 12.333,264.486 12.333 C 264.407 12.333,264.231 12.127,264.096 11.875 C 263.858 11.433,262.814 10.291,261.984 9.567 C 261.764 9.374,261.310 9.127,260.975 9.018 C 260.641 8.908,260.205 8.678,260.007 8.506 C 259.757 8.289,259.280 8.165,258.448 8.101 C 256.127 7.922,255.398 7.913,253.509 8.041 M16.417 8.165 C 15.308 8.292,12.167 9.289,12.167 9.515 C 12.167 9.594,11.923 9.784,11.626 9.938 C 10.872 10.328,8.968 11.869,8.485 12.480 C 6.913 14.471,6.218 15.610,6.011 16.536 C 5.915 16.963,5.669 17.711,5.464 18.198 C 4.827 19.709,4.894 26.047,5.568 28.104 C 6.803 31.870,8.901 34.908,11.030 36.011 C 11.368 36.185,11.695 36.411,11.757 36.511 C 11.819 36.612,12.181 36.841,12.560 37.021 C 12.940 37.201,13.455 37.461,13.706 37.598 C 15.359 38.507,22.597 38.437,23.788 37.500 C 24.008 37.327,24.464 37.096,24.802 36.985 C 25.984 36.600,30.000 32.702,30.000 31.940 C 30.000 31.832,30.177 31.483,30.394 31.164 C 30.611 30.844,30.843 30.321,30.910 30.000 C 30.977 29.679,31.175 29.169,31.349 28.865 C 31.628 28.381,31.667 27.961,31.667 25.399 L 31.667 22.483 31.089 22.241 C 30.316 21.919,18.519 21.881,18.200 22.200 C 18.072 22.328,18.000 22.979,18.000 24.008 C 18.000 26.291,17.749 26.167,22.374 26.167 C 27.244 26.167,26.998 26.037,26.208 28.178 C 25.088 31.213,22.668 33.001,19.682 32.999 C 15.775 32.996,13.161 31.799,11.994 29.477 C 11.792 29.077,11.516 28.623,11.380 28.468 C 11.125 28.178,10.614 24.536,10.647 23.250 C 10.697 21.308,11.148 18.795,11.553 18.196 C 11.780 17.859,12.016 17.417,12.076 17.213 C 12.188 16.836,14.121 15.002,14.408 15.001 C 14.494 15.000,14.836 14.812,15.168 14.583 C 16.320 13.784,20.086 13.634,21.364 14.335 C 21.668 14.501,22.142 14.748,22.417 14.882 C 22.692 15.016,23.292 15.491,23.750 15.938 L 24.583 16.750 26.895 16.805 C 30.039 16.879,30.059 16.872,29.965 15.783 C 29.823 14.154,27.325 10.620,25.963 10.122 C 25.754 10.046,25.321 9.804,25.000 9.584 C 23.264 8.397,19.637 7.797,16.417 8.165 M145.977 8.485 C 145.605 8.785,145.583 8.908,145.583 10.687 C 145.583 13.110,145.386 12.994,149.521 12.998 C 151.957 12.999,152.667 13.050,152.817 13.230 C 152.954 13.396,153.038 16.851,153.115 25.566 C 153.207 35.997,153.256 37.700,153.470 37.877 C 153.856 38.198,158.188 38.162,158.582 37.835 C 158.867 37.598,158.875 37.010,158.759 25.474 C 158.637 13.421,158.638 13.360,158.974 13.181 C 159.182 13.069,160.521 13.000,162.469 13.000 C 165.053 13.000,165.663 12.955,165.831 12.753 C 166.144 12.376,166.002 8.542,165.667 8.330 C 165.114 7.981,146.418 8.128,145.977 8.485 M44.083 14.248 C 43.992 14.278,43.167 14.508,42.250 14.758 C 40.289 15.295,39.217 16.059,37.934 17.835 C 37.231 18.808,36.164 21.043,36.064 21.750 C 36.012 22.117,35.864 22.957,35.735 23.618 C 34.633 29.252,37.716 37.148,41.325 37.937 C 41.559 37.988,42.235 38.184,42.828 38.374 C 44.073 38.771,45.006 38.794,45.833 38.447 C 46.154 38.313,46.867 38.111,47.417 37.998 C 48.323 37.812,48.631 37.638,49.750 36.679 C 50.138 36.346,50.938 35.343,51.200 34.859 C 51.411 34.469,51.559 34.365,51.783 34.448 C 52.241 34.617,52.299 34.786,52.425 36.288 C 52.575 38.094,52.692 38.167,55.466 38.167 C 57.235 38.167,57.481 38.131,57.749 37.834 C 58.163 37.377,57.987 15.597,57.566 15.167 C 57.226 14.820,52.857 14.801,52.442 15.145 C 52.226 15.325,52.167 15.676,52.167 16.781 C 52.167 18.833,51.636 19.508,51.043 18.208 C 50.634 17.311,49.941 16.455,49.043 15.738 C 48.124 15.003,44.812 14.008,44.083 14.248 M122.554 14.461 C 119.986 15.071,119.568 15.200,119.254 15.487 C 119.069 15.656,118.692 15.916,118.417 16.066 C 117.271 16.688,116.065 18.460,115.826 19.872 C 115.344 22.720,116.547 25.555,118.687 26.617 C 119.550 27.046,121.305 27.707,122.333 27.991 C 122.929 28.156,123.792 28.445,124.250 28.634 C 124.708 28.823,125.329 29.068,125.630 29.178 C 126.752 29.589,127.833 30.834,127.833 31.717 C 127.833 34.567,122.587 35.145,120.905 32.481 C 120.134 31.261,115.776 31.035,115.407 32.196 C 115.079 33.229,117.430 36.251,119.155 37.015 C 119.567 37.197,120.024 37.454,120.170 37.586 C 120.316 37.718,121.008 37.936,121.708 38.070 C 122.408 38.204,123.304 38.422,123.699 38.554 C 124.227 38.731,124.659 38.757,125.333 38.653 C 126.989 38.398,129.018 37.869,129.303 37.619 C 129.457 37.484,129.860 37.233,130.198 37.061 C 130.887 36.712,131.349 36.122,132.269 34.417 C 133.986 31.234,132.228 27.084,128.667 25.916 C 128.162 25.751,127.600 25.522,127.417 25.408 C 127.233 25.293,126.686 25.117,126.200 25.017 C 125.714 24.916,125.088 24.715,124.808 24.570 C 124.528 24.425,123.964 24.206,123.555 24.083 C 121.281 23.399,120.204 21.534,121.091 19.818 C 121.919 18.217,126.186 18.611,127.103 20.373 C 127.791 21.696,131.916 21.994,132.392 20.755 C 132.547 20.349,131.916 18.558,131.393 17.923 C 131.131 17.605,130.741 17.116,130.526 16.835 C 130.311 16.555,129.898 16.206,129.609 16.060 C 129.320 15.914,128.932 15.657,128.747 15.488 C 127.973 14.782,123.987 14.121,122.554 14.461 M196.435 14.339 C 195.986 14.416,195.424 14.556,195.185 14.650 C 194.946 14.743,194.366 14.886,193.896 14.967 C 191.650 15.353,188.614 18.477,187.934 21.101 C 187.789 21.660,187.538 22.409,187.377 22.767 C 186.918 23.782,186.971 28.910,187.452 30.083 C 187.640 30.542,187.882 31.342,187.989 31.862 C 188.097 32.382,188.304 32.906,188.449 33.026 C 188.594 33.147,188.846 33.546,189.009 33.914 C 189.368 34.726,191.224 36.684,192.012 37.084 C 192.326 37.243,192.711 37.485,192.867 37.622 C 193.023 37.759,193.623 37.972,194.201 38.095 C 194.778 38.218,195.765 38.437,196.393 38.581 C 197.443 38.822,197.620 38.821,198.560 38.567 C 199.123 38.416,200.061 38.196,200.645 38.079 C 201.229 37.962,201.913 37.714,202.164 37.528 C 202.416 37.342,202.876 37.083,203.186 36.953 C 203.760 36.712,205.726 34.943,206.064 34.363 C 206.166 34.188,206.391 33.846,206.562 33.603 C 206.958 33.044,207.118 31.760,206.834 31.418 C 206.669 31.219,206.200 31.167,204.584 31.167 C 201.883 31.167,201.590 31.237,201.037 32.013 C 200.787 32.363,200.321 32.758,200.000 32.892 C 197.266 34.029,196.966 34.052,195.241 33.260 C 193.677 32.541,192.685 30.776,192.670 28.685 C 192.664 27.852,192.730 27.844,200.363 27.839 C 208.362 27.833,207.893 27.911,208.097 26.548 C 208.251 25.524,207.908 22.430,207.568 21.769 C 207.421 21.483,207.161 20.853,206.990 20.367 C 206.178 18.061,203.274 15.395,201.068 14.931 C 200.431 14.797,199.723 14.618,199.496 14.533 C 198.832 14.284,197.316 14.188,196.435 14.339 M221.300 14.335 C 220.869 14.409,220.446 14.514,220.360 14.567 C 220.274 14.620,219.657 14.779,218.988 14.919 C 217.248 15.285,214.800 17.133,213.998 18.684 C 213.884 18.904,213.658 19.233,213.494 19.417 C 213.330 19.600,213.111 20.087,213.007 20.500 C 212.903 20.912,212.652 21.625,212.450 22.083 C 212.113 22.849,212.083 23.181,212.083 26.168 L 212.083 29.420 212.659 31.168 C 212.975 32.130,213.401 33.123,213.605 33.374 C 213.810 33.626,214.030 33.999,214.095 34.204 C 214.160 34.409,214.409 34.778,214.648 35.023 C 214.888 35.269,215.346 35.743,215.667 36.078 C 215.987 36.412,216.475 36.802,216.750 36.946 C 217.025 37.089,217.400 37.342,217.583 37.509 C 217.767 37.676,218.479 37.938,219.167 38.091 C 219.854 38.244,220.875 38.473,221.436 38.598 C 222.315 38.795,222.578 38.792,223.352 38.578 C 223.846 38.442,224.810 38.217,225.493 38.078 C 226.177 37.939,226.890 37.684,227.077 37.512 C 227.264 37.340,227.691 37.086,228.027 36.947 C 229.455 36.359,231.734 33.743,231.943 32.451 C 232.145 31.206,231.961 31.124,229.110 31.192 L 226.583 31.251 225.790 32.103 C 223.095 34.996,218.692 33.937,217.818 30.185 C 217.655 29.487,217.474 28.790,217.414 28.636 C 217.133 27.905,217.835 27.834,225.367 27.831 C 229.508 27.829,232.520 27.763,232.667 27.671 C 233.645 27.053,232.601 20.742,231.255 19.142 C 231.023 18.867,230.833 18.586,230.833 18.519 C 230.833 17.908,227.165 15.000,226.394 15.000 C 226.196 15.000,225.558 14.857,224.976 14.682 C 223.653 14.285,222.317 14.159,221.300 14.335 M279.833 14.279 C 279.604 14.322,278.940 14.502,278.357 14.678 C 277.775 14.855,277.094 15.000,276.845 15.000 C 276.596 15.000,276.098 15.223,275.738 15.495 C 275.378 15.768,274.993 15.993,274.883 15.995 C 274.678 16.000,273.426 17.240,272.649 18.209 C 272.011 19.004,271.000 20.989,271.000 21.447 C 271.000 21.665,270.831 22.310,270.625 22.880 C 270.102 24.326,270.096 28.025,270.614 29.667 C 270.802 30.262,271.007 31.101,271.070 31.530 C 271.132 31.959,271.319 32.484,271.485 32.697 C 271.651 32.909,271.920 33.346,272.083 33.667 C 272.246 33.987,272.429 34.287,272.490 34.333 C 272.550 34.379,272.779 34.674,272.999 34.988 C 273.483 35.681,274.546 36.667,275.145 36.979 C 275.386 37.104,275.737 37.347,275.925 37.518 C 276.113 37.689,276.666 37.905,277.154 37.998 C 277.641 38.090,278.420 38.278,278.884 38.416 C 279.859 38.706,281.704 38.747,282.184 38.491 C 282.365 38.394,283.077 38.207,283.766 38.075 C 284.530 37.929,285.228 37.679,285.552 37.437 C 285.844 37.218,286.254 36.987,286.464 36.923 C 287.703 36.546,289.964 33.731,290.104 32.388 C 290.233 31.157,290.266 31.172,287.436 31.169 C 285.223 31.166,284.757 31.330,283.943 32.397 C 283.684 32.736,283.313 32.996,282.995 33.059 C 282.708 33.117,282.198 33.296,281.862 33.457 C 279.459 34.608,276.388 32.631,275.978 29.667 C 275.704 27.690,275.116 27.834,283.484 27.831 C 290.900 27.828,290.816 27.835,291.172 27.167 C 291.625 26.319,291.111 21.979,290.413 20.750 C 290.205 20.383,289.979 19.896,289.911 19.667 C 289.843 19.438,289.644 19.100,289.467 18.917 C 289.291 18.733,288.898 18.269,288.595 17.884 C 288.088 17.243,287.286 16.514,286.017 15.540 C 285.747 15.333,285.127 15.088,284.638 14.996 C 284.150 14.904,283.412 14.723,283.000 14.593 C 282.160 14.328,280.468 14.160,279.833 14.279 M359.333 14.332 C 357.754 14.534,355.450 15.180,354.973 15.556 C 354.722 15.754,354.185 16.171,353.781 16.481 C 353.376 16.791,352.808 17.354,352.517 17.731 C 352.226 18.108,351.766 18.708,351.494 19.065 C 351.222 19.421,351.000 19.841,351.000 19.998 C 351.000 20.155,350.817 20.628,350.594 21.048 C 349.570 22.973,349.567 29.618,350.590 31.778 C 350.815 32.256,351.000 32.711,351.000 32.790 C 351.000 33.335,354.046 37.000,354.499 37.000 C 354.577 37.000,354.860 37.184,355.128 37.410 C 355.447 37.678,356.069 37.914,356.931 38.092 C 357.655 38.241,358.307 38.400,358.380 38.445 C 358.832 38.725,360.595 38.797,361.282 38.564 C 361.687 38.426,362.593 38.204,363.295 38.070 C 364.014 37.932,364.719 37.690,364.910 37.515 C 365.097 37.344,365.550 37.043,365.917 36.845 C 368.395 35.512,370.427 32.254,369.667 30.834 C 369.328 30.201,364.787 30.384,364.273 31.052 C 362.813 32.947,361.436 33.661,359.873 33.333 C 359.530 33.261,358.962 33.152,358.610 33.090 C 355.168 32.492,354.089 24.397,357.014 21.116 C 359.064 18.816,362.429 19.167,364.108 21.856 C 364.315 22.187,364.566 22.320,365.131 22.397 C 366.256 22.552,369.217 22.516,369.487 22.345 C 370.554 21.670,367.872 16.819,365.957 15.962 C 365.571 15.790,365.132 15.536,364.979 15.398 C 364.763 15.202,360.437 14.090,360.286 14.191 C 360.266 14.205,359.837 14.268,359.333 14.332 M383.333 14.408 C 382.829 14.529,381.861 14.753,381.181 14.905 C 380.426 15.075,379.757 15.341,379.460 15.591 C 379.193 15.816,378.874 16.000,378.752 16.000 C 378.515 16.000,376.632 17.970,376.203 18.667 C 376.062 18.896,375.774 19.346,375.563 19.667 C 375.352 19.988,375.069 20.738,374.935 21.333 C 374.801 21.929,374.577 22.717,374.436 23.083 C 374.142 23.853,374.067 28.185,374.332 29.167 C 375.094 31.992,375.324 32.715,375.541 32.963 C 375.678 33.121,375.923 33.534,376.083 33.880 C 376.826 35.480,379.573 37.693,381.298 38.082 C 381.821 38.200,382.767 38.413,383.399 38.555 C 384.233 38.743,384.736 38.772,385.233 38.660 C 385.609 38.575,386.580 38.359,387.392 38.180 C 388.203 38.001,388.993 37.740,389.148 37.600 C 389.302 37.461,389.767 37.197,390.180 37.014 C 390.889 36.700,392.180 35.522,393.345 34.127 C 393.954 33.396,394.256 31.598,393.816 31.319 C 393.491 31.114,389.624 31.129,389.053 31.338 C 388.794 31.433,388.321 31.809,388.000 32.174 C 387.181 33.106,384.949 33.948,383.790 33.762 C 382.886 33.618,381.218 32.744,380.985 32.292 C 380.879 32.086,380.646 31.757,380.469 31.562 C 380.262 31.334,380.068 30.716,379.926 29.833 C 379.579 27.667,378.949 27.833,387.496 27.833 L 394.659 27.833 394.933 27.415 C 395.425 26.664,395.145 22.537,394.520 21.333 C 394.354 21.012,394.121 20.450,394.002 20.083 C 393.671 19.064,391.413 16.471,390.405 15.952 C 390.123 15.807,389.798 15.575,389.683 15.437 C 389.568 15.298,389.049 15.101,388.529 14.998 C 388.009 14.896,387.246 14.710,386.833 14.586 C 385.668 14.234,384.339 14.167,383.333 14.408 M64.833 14.956 C 64.604 14.999,64.362 15.120,64.294 15.225 C 64.141 15.465,64.132 24.047,64.278 31.812 L 64.388 37.707 64.939 37.937 C 65.787 38.291,69.385 38.257,69.688 37.891 C 69.873 37.668,69.917 36.414,69.917 31.349 C 69.918 24.489,69.857 24.965,70.962 23.167 C 71.602 22.124,73.151 21.377,75.140 21.151 C 75.927 21.062,76.629 20.897,76.700 20.786 C 76.960 20.376,76.857 15.393,76.583 15.166 C 75.484 14.255,72.156 16.391,70.934 18.792 C 70.347 19.944,69.834 19.152,69.831 17.088 C 69.828 15.366,69.770 15.221,68.989 14.997 C 68.424 14.835,65.634 14.807,64.833 14.956 M80.019 15.125 L 79.667 15.417 79.996 16.500 C 80.177 17.096,80.477 17.880,80.663 18.244 C 80.848 18.607,81.000 19.019,81.001 19.160 C 81.001 19.301,81.226 19.867,81.500 20.417 C 81.774 20.967,81.999 21.530,81.999 21.669 C 82.000 21.808,82.217 22.371,82.482 22.919 C 82.747 23.468,83.016 24.165,83.081 24.469 C 83.145 24.772,83.377 25.335,83.597 25.719 C 83.816 26.103,83.997 26.567,83.999 26.750 C 84.000 26.933,84.226 27.533,84.500 28.083 C 84.774 28.633,84.999 29.203,84.999 29.350 C 85.000 29.497,85.187 29.969,85.416 30.400 C 85.645 30.831,85.919 31.536,86.024 31.967 C 86.130 32.397,86.392 33.057,86.608 33.431 C 86.824 33.806,87.000 34.250,87.000 34.418 C 87.000 34.586,87.243 35.217,87.540 35.820 C 87.980 36.715,88.079 37.115,88.079 38.000 C 88.079 38.885,87.980 39.285,87.540 40.180 C 87.243 40.783,87.000 41.383,86.999 41.513 C 86.999 41.643,86.774 42.200,86.500 42.750 C 86.226 43.300,86.001 43.883,86.001 44.045 C 86.000 44.207,85.775 44.761,85.500 45.277 C 85.225 45.792,85.000 46.365,85.000 46.550 C 85.000 46.736,84.815 47.203,84.589 47.589 C 83.372 49.665,83.743 50.049,86.886 49.974 C 89.588 49.909,89.702 49.864,89.982 48.753 C 90.084 48.348,90.355 47.664,90.584 47.233 C 90.813 46.803,91.000 46.293,91.001 46.100 C 91.001 45.908,91.226 45.300,91.500 44.750 C 91.774 44.200,91.999 43.592,91.999 43.400 C 92.000 43.207,92.175 42.720,92.388 42.316 C 92.601 41.913,92.864 41.231,92.972 40.800 C 93.079 40.369,93.355 39.664,93.584 39.233 C 93.813 38.803,94.002 38.293,94.005 38.100 C 94.008 37.908,94.233 37.302,94.505 36.754 C 94.777 36.207,95.002 35.607,95.005 35.421 C 95.008 35.235,95.233 34.635,95.505 34.088 C 95.777 33.540,96.000 32.939,96.000 32.753 C 96.000 32.567,96.180 32.076,96.400 31.664 C 96.619 31.251,96.887 30.576,96.995 30.165 C 97.103 29.753,97.373 29.046,97.596 28.592 C 97.818 28.139,98.000 27.639,98.000 27.482 C 98.000 27.325,98.225 26.721,98.500 26.140 C 98.775 25.559,99.000 24.932,99.000 24.748 C 99.000 24.563,99.158 24.117,99.351 23.757 C 99.544 23.397,99.874 22.610,100.084 22.009 C 100.422 21.046,100.828 19.936,101.707 17.583 C 101.844 17.217,102.032 16.692,102.124 16.417 C 102.217 16.142,102.345 15.790,102.410 15.636 C 102.641 15.083,101.720 14.833,99.467 14.837 C 96.806 14.842,96.471 15.091,96.004 17.417 C 95.893 17.967,95.696 18.584,95.566 18.788 C 95.436 18.993,95.214 19.660,95.072 20.272 C 94.930 20.883,94.677 21.654,94.510 21.984 C 94.342 22.313,94.113 23.033,94.000 23.583 C 93.887 24.133,93.663 24.846,93.501 25.167 C 93.340 25.488,93.123 26.148,93.020 26.635 C 92.917 27.122,92.680 27.854,92.494 28.263 C 92.308 28.672,92.091 29.349,92.013 29.768 C 91.860 30.588,91.632 30.934,91.356 30.764 C 91.050 30.575,90.162 28.664,89.975 27.790 C 89.875 27.324,89.615 26.607,89.397 26.196 C 89.179 25.786,89.000 25.249,89.000 25.003 C 89.000 24.758,88.818 24.196,88.595 23.756 C 88.371 23.315,88.099 22.571,87.989 22.102 C 87.878 21.634,87.648 20.971,87.477 20.631 C 87.306 20.290,87.083 19.615,86.983 19.131 C 86.882 18.646,86.679 18.063,86.531 17.833 C 86.383 17.604,86.142 16.929,85.996 16.333 C 85.659 14.963,85.406 14.856,82.477 14.843 C 80.707 14.835,80.314 14.880,80.019 15.125 M171.276 15.138 C 170.881 15.575,170.945 37.205,171.343 37.850 C 171.492 38.091,174.448 38.262,175.564 38.095 C 176.899 37.895,176.859 38.076,176.731 32.858 C 176.600 27.511,176.802 24.529,177.342 23.833 C 177.520 23.604,177.809 23.152,177.984 22.829 C 178.374 22.109,180.125 21.354,181.842 21.166 C 183.736 20.958,183.667 21.077,183.667 18.025 L 183.667 15.395 183.090 15.120 C 181.801 14.506,179.059 16.282,177.937 18.458 C 177.229 19.832,176.500 18.979,176.500 16.775 C 176.500 15.440,176.488 15.398,176.016 15.119 C 175.284 14.687,171.671 14.701,171.276 15.138 M296.849 15.093 L 296.281 15.339 296.390 20.211 C 296.450 22.891,296.549 27.886,296.610 31.310 C 296.744 38.848,296.467 38.168,299.406 38.164 C 302.195 38.161,301.903 38.906,302.000 31.548 L 302.083 25.250 302.644 24.167 C 303.676 22.170,304.914 21.361,307.167 21.210 C 309.024 21.086,309.000 21.128,309.000 18.000 C 309.000 14.844,308.942 14.727,307.514 14.997 C 306.529 15.184,306.021 15.517,304.707 16.833 C 303.410 18.133,303.318 18.248,302.983 18.996 C 302.391 20.319,302.000 19.602,302.000 17.193 C 302.000 14.833,301.999 14.832,299.449 14.840 C 298.035 14.844,297.244 14.921,296.849 15.093 M312.274 15.183 C 312.025 15.538,312.148 16.284,312.538 16.784 C 312.624 16.894,312.835 17.548,313.008 18.238 C 313.180 18.928,313.429 19.663,313.562 19.871 C 313.694 20.080,313.893 20.700,314.004 21.250 C 314.115 21.800,314.347 22.529,314.520 22.869 C 314.693 23.210,314.918 23.885,315.021 24.369 C 315.124 24.854,315.349 25.529,315.521 25.869 C 315.693 26.210,315.918 26.885,316.021 27.369 C 316.124 27.854,316.351 28.533,316.525 28.878 C 316.700 29.223,316.917 29.896,317.008 30.374 C 317.098 30.851,317.313 31.512,317.485 31.842 C 317.657 32.172,317.889 32.886,318.001 33.429 C 318.113 33.972,318.324 34.642,318.469 34.917 C 318.614 35.192,318.853 35.904,318.999 36.500 C 319.392 38.095,319.585 38.166,323.513 38.166 C 327.249 38.167,327.506 38.011,327.978 35.462 C 328.074 34.941,328.295 34.230,328.469 33.882 C 328.642 33.534,328.876 32.773,328.987 32.191 C 329.099 31.608,329.329 30.858,329.498 30.524 C 329.668 30.190,329.896 29.467,330.006 28.917 C 330.116 28.367,330.340 27.652,330.504 27.328 C 330.668 27.004,330.882 26.312,330.978 25.791 C 331.075 25.269,331.282 24.596,331.438 24.296 C 331.594 23.996,331.821 23.278,331.943 22.702 C 332.065 22.125,332.307 21.338,332.481 20.952 C 332.655 20.566,332.889 19.800,333.001 19.250 C 333.114 18.700,333.351 17.964,333.528 17.614 C 334.628 15.449,334.177 14.833,331.493 14.833 C 328.530 14.833,328.312 14.964,327.998 16.931 C 327.897 17.562,327.677 18.388,327.509 18.768 C 327.341 19.148,327.111 20.012,326.999 20.688 C 326.886 21.364,326.685 22.130,326.551 22.390 C 326.418 22.650,326.194 23.475,326.053 24.223 C 325.913 24.971,325.688 25.795,325.555 26.053 C 325.422 26.312,325.203 27.099,325.068 27.803 C 324.934 28.507,324.638 29.621,324.412 30.278 C 324.185 30.935,324.000 31.655,324.000 31.878 C 324.000 32.378,323.679 33.333,323.511 33.333 C 323.257 33.333,322.158 30.650,321.929 29.472 C 321.798 28.800,321.573 28.016,321.427 27.729 C 321.282 27.443,321.086 26.768,320.991 26.229 C 320.896 25.691,320.680 24.912,320.510 24.500 C 320.340 24.087,320.114 23.300,320.007 22.750 C 319.901 22.200,319.667 21.396,319.487 20.962 C 319.308 20.529,319.057 19.666,318.929 19.046 C 318.802 18.425,318.546 17.504,318.360 17.000 C 318.174 16.496,317.977 15.874,317.923 15.619 C 317.781 14.954,317.295 14.833,314.749 14.833 C 312.673 14.833,312.502 14.857,312.274 15.183 M339.253 15.163 C 338.843 15.616,339.020 37.402,339.437 37.833 C 339.774 38.182,344.143 38.199,344.560 37.852 C 344.816 37.640,344.831 36.830,344.746 27.686 C 344.633 15.466,344.630 15.409,343.994 15.080 C 343.200 14.670,339.643 14.732,339.253 15.163 M200.000 19.745 C 201.883 20.704,203.186 23.798,202.055 24.625 C 201.628 24.937,193.351 24.922,192.922 24.608 C 192.446 24.260,192.845 22.093,193.541 21.250 C 193.692 21.066,193.952 20.743,194.118 20.530 C 195.162 19.200,198.146 18.802,200.000 19.745 M224.917 19.732 C 226.750 20.721,227.931 23.462,227.005 24.577 C 226.707 24.936,217.997 24.898,217.636 24.536 C 217.320 24.219,218.022 21.589,218.555 21.095 C 218.771 20.895,219.015 20.610,219.099 20.462 C 219.786 19.236,223.204 18.807,224.917 19.732 M283.167 19.745 C 284.737 20.543,285.741 22.107,285.717 23.716 C 285.701 24.809,285.977 24.744,281.113 24.800 C 275.673 24.862,276.000 24.937,276.000 23.621 C 276.000 20.296,279.998 18.134,283.167 19.745 M387.105 19.732 C 388.285 20.323,388.888 21.072,389.315 22.478 C 390.023 24.808,389.972 24.833,384.531 24.833 C 379.506 24.833,379.726 24.906,379.894 23.299 C 380.233 20.058,384.017 18.186,387.105 19.732 M48.740 20.208 C 48.917 20.302,49.142 20.445,49.240 20.525 C 49.337 20.606,49.674 20.840,49.989 21.045 C 50.304 21.249,50.754 21.726,50.989 22.104 C 51.224 22.482,51.551 22.980,51.714 23.209 C 52.411 24.186,52.309 28.931,51.569 29.951 C 51.384 30.207,51.133 30.661,51.012 30.959 C 50.200 32.965,45.523 33.907,43.865 32.399 C 42.720 31.358,42.269 30.755,42.006 29.917 C 41.890 29.550,41.692 29.084,41.565 28.881 C 39.886 26.203,42.266 20.533,45.293 19.999 C 46.214 19.837,48.272 19.962,48.740 20.208 " stroke="none" fill="#fbfbfb" fill-rule="evenodd"></path></g></svg>